<svg width="28" height="24" fill="none" xmlns="http://www.w3.org/2000/svg"><path d="M21.636 0H6.364A5.461 5.461 0 00.909 5.455v13.09A5.461 5.461 0 006.364 24h15.272a5.461 5.461 0 005.455-5.454V5.455A5.461 5.461 0 0021.636 0zM6.364 2.182h15.272a3.273 3.273 0 013.273 3.273v1.09H3.091v-1.09a3.273 3.273 0 013.273-3.273zm15.272 19.636H6.364a3.273 3.273 0 01-3.273-3.273V8.728h21.818v9.819a3.272 3.272 0 01-3.273 3.272zm0-8.727a1.091 1.091 0 01-1.09 1.09H7.455a1.09 1.09 0 110-2.181h13.09a1.09 1.09 0 011.091 1.09zm-4.363 4.364a1.09 1.09 0 01-1.091 1.09H7.455a1.09 1.09 0 010-2.181h8.727a1.091 1.091 0 011.09 1.09zM4.182 4.364a1.09 1.09 0 112.182 0 1.09 1.09 0 01-2.182 0zm3.273 0a1.09 1.09 0 112.181 0 1.09 1.09 0 01-2.181 0zm3.272 0a1.091 1.091 0 112.183 0 1.091 1.091 0 01-2.183 0z" fill="#fff"/></svg>