<svg width="24" height="24" fill="none" xmlns="http://www.w3.org/2000/svg"><g clip-path="url(#clip0)"><path d="M22.9 8.955a1.987 1.987 0 00-2.092.184L18.975 10.5A5.007 5.007 0 0014 6h-.085L9.793 1.879A2.976 2.976 0 007.672 1H1a1 1 0 000 2h6.672c.265 0 .52.106.707.293L11.086 6H5a5.006 5.006 0 00-5 5v8a5.006 5.006 0 005 5h9a5.007 5.007 0 004.975-4.5l1.83 1.364a2 2 0 003.2-1.6v-8.521A1.988 1.988 0 0022.9 8.955zM17 19a3 3 0 01-3 3H5a3 3 0 01-3-3v-8a3 3 0 013-3h9a3 3 0 013 3v8zm5 .257l-3-2.236v-4.042l3-2.236v8.514z" fill="#111238"/></g><defs><clipPath id="clip0"><path fill="#fff" d="M0 0h24v24H0z"/></clipPath></defs></svg>