<svg width="24" height="25" fill="none" xmlns="http://www.w3.org/2000/svg"><path d="M6.465 22.285a1 1 0 01-.515-1.857C9.493 18.3 9.493 13.73 9.493 11a3 3 0 116 0 1 1 0 01-2 0 1 1 0 00-2 0c0 2.947 0 8.434-4.514 11.143a1.001 1.001 0 01-.514.142zm4.963 1.421c2.282-2.3 3.615-5.534 3.961-9.62A1.001 1.001 0 0014.48 13a.983.983 0 00-1.082.911c-.31 3.657-1.419 6.4-3.388 8.381a1 1 0 101.42 1.41v.004zm5.2-.186a17.803 17.803 0 001.508-3.18 1 1 0 00-1.88-.679 15.904 15.904 0 01-1.339 2.821.998.998 0 00.337 1.375 1 1 0 001.374-.337zm2.365-6.329a31.47 31.47 0 00.5-6.19A7 7 0 007.28 6.332a1 1 0 101.49 1.334A5 5 0 0117.492 11a29.695 29.695 0 01-.462 5.81 1 1 0 001.962.381zm-11.5-6.19c0-.28.023-.559.07-.834a1 1 0 10-1.97-.334 6.97 6.97 0 00-.1 1.167c0 4.645-1.346 7-4 7a1 1 0 100 2c3.87 0 6-3.2 6-9zm13.7 12.413A29.762 29.762 0 0023.493 11a10.865 10.865 0 00-1.1-4.794 1.002 1.002 0 00-1.8.875 8.9 8.9 0 01.9 3.92 27.912 27.912 0 01-2.119 11.585 1 1 0 001.82.828zM3.493 14v-3a9.01 9.01 0 019-9 8.911 8.911 0 015.4 1.8 1 1 0 101.2-1.6 10.9 10.9 0 00-6.6-2.2 11.013 11.013 0 00-11 11v3a1 1 0 002 0z" fill="#111238"/></svg>