<svg width="545" height="558" fill="none" xmlns="http://www.w3.org/2000/svg"><path d="M391.246 41.355c39.314 13.728 86.116 24.96 93.604 53.042 7.489 28.706-24.337 74.26-30.577 117.318-5.617 42.434 14.352 81.124 3.744 103.589-11.233 22.465-53.043 28.082-86.74 57.411-34.322 29.954-59.907 83.62-97.973 105.461-38.69 22.466-89.861 12.481-114.198-23.089-24.337-34.946-21.841-95.477-29.954-139.783-8.112-44.306-26.833-72.387-34.321-104.837-7.489-32.45-4.368-69.268 9.36-104.213 13.105-34.946 36.818-68.02 68.644-86.74C205.284.791 245.222-3.577 282.04 2.663c36.818 6.865 69.268 24.338 109.206 38.69z" fill="url(#paint0_linear)"/><path d="M191.259 81.759s7.08.558 7.689 10.353.66 38.215-12.637 39.966c-13.297 1.751-3.73-46.69-3.73-46.69l8.678-3.63zm-46.183 8.78s-5.38 14.997 5.354 17.737c10.759 2.741 8.755-19.006 8.755-19.006l-14.109 1.269z" fill="#1C2226"/><path d="M206.231 184.732l33.267 46.894-1.852-4.39 15.352 68.819 17.103-3.198-10.582-69.706a9.573 9.573 0 00-1.624-4.06l-.228-.33-33.267-46.894-18.169 12.865z" fill="#FCC9A7"/><path d="M265.736 317.167c8.755-2.614 13.703-11.85 11.089-20.58-2.613-8.754-11.85-13.702-20.579-11.089-8.755 2.614-13.703 11.851-11.089 20.58 2.613 8.729 11.825 13.703 20.579 11.089zM134.215 183.134l-21.036 64.301 11.292-7.663-68.514-1.853-1.09 17.383 68.208 6.724c5.075.508 9.643-2.639 11.166-7.283l.126-.38 21.037-64.302-21.189-6.927zm3.73 328.891l-10.302 28.395-15.073-13.55 9.617-22.762 15.758 7.917z" fill="#FCC9A7"/><path d="M133.606 533.848c0-1.396-1.192-2.309-2.385-1.802-2.335.99-6.217 1.853-10.81-.202-4.796-2.157-5.684-5.685-5.684-8.019 0-1.218-.863-2.132-1.979-1.979l-35.095 5.049c-2.131.305-4.136 1.548-5.557 3.451-1.345 1.777-.71 4.39 1.167 4.949l52.401 15.935c2.055.635 4.288-.862 4.897-3.248l2.969-11.723c.051-.203.076-.406.076-.584v-1.827z" fill="#1F252A"/><path d="M274.973 492.74l11.419 22.356-13.297 11.368-14.362-26.822 16.24-6.902z" fill="#FCC9A7"/><path d="M288.777 510.173c-1.066-.888-2.537-.584-2.918.66-.761 2.436-2.588 5.937-7.156 8.12-4.745 2.258-8.018.634-9.795-.863-.939-.787-2.207-.711-2.791.228l-18.879 30.02c-1.142 1.827-1.498 4.136-.965 6.445.482 2.182 2.868 3.375 4.543 2.309l46.081-29.638c1.802-1.168 2.132-3.832.711-5.837l-7.029-9.845a3.259 3.259 0 00-.406-.432l-1.396-1.167z" fill="#1F252A"/><path d="M149.593 283.037l45.067 125.025 63.794 105.714 28.445-14.058-56.714-105.384-31.11-105.41-49.482-5.887z" fill="#092330"/><path d="M219.223 284.889s8.526 16.114-4.72 41.87l-41.133 78.486-31.339 118.96-31.136-10.86 29.791-120.305 32.201-93.864-23.32-16.114 69.656 1.827z" fill="#0C2C40"/><path d="M180.424 145.984l35.094 7.207a16.717 16.717 0 0110.252 6.648l22.33 31.11-29.841 19.514 10.759 85.186s-12.155 37.2-86.302 7.536c0 0 6.395-70.594 2.106-116.575l2.183-30.273 33.419-10.353z" fill="#DF945B"/><path d="M146.979 156.312l-5.836 2.131a16.716 16.716 0 00-10.176 10.531l-12.155 37.074 35.729 6.597-7.562-56.333z" fill="#DF945B"/><path d="M33.17 241.65c0 9.135 7.41 16.544 16.545 16.544 9.135 0 16.52-7.409 16.52-16.544 0-9.136-7.41-16.52-16.52-16.52-9.135 0-16.545 7.384-16.545 16.52zm137.332-84.932l3.984 2.208c7.74-.635 15.022-2.284 14.388-10.024l-1.853-22.685-28.039 2.309 1.852 22.685c.634 7.74 1.929 6.141 9.668 5.507z" fill="#FCC9A7"/><path d="M187.402 128.957s-3.857 16.799-17.966 16.215c-12.332-.533-11.165-18.955-11.165-18.955l29.131 2.74z" fill="#F4BE9A"/><path d="M171.847 139.209l2.385-.254c11.927-1.294 20.554-12.003 19.286-23.954l-1.472-13.602c-1.294-11.926-12.003-20.554-23.955-19.285l-2.385.254c-11.926 1.294-20.554 12.002-19.285 23.954l1.472 13.601c1.294 11.927 12.002 20.555 23.954 19.286z" fill="#FCC9A7"/><path d="M216.203 204.525l-9.033-10.657m-61.003 17.23l-1.37-22.001" stroke="#CE804A" stroke-width=".769" stroke-miterlimit="10" stroke-linecap="round" stroke-linejoin="round"/><path d="M170.502 156.718l17.814-10.759c7.612-3.172 12.459 4.187 12.459 4.187l-21.214 20.808-9.059-14.236z" fill="#EDA472"/><path d="M170.502 156.718l-8.627 13.347-8.628-15.707s3.4-5.354 8.044-4.111l9.211 6.471z" fill="#EDA472"/><path d="M124.014 242.335H16.194a3.238 3.238 0 01-3.248-3.248 3.238 3.238 0 013.248-3.248h107.82a3.238 3.238 0 013.248 3.248 3.254 3.254 0 01-3.248 3.248z" fill="#D1D1D1"/><path d="M12.946 238.249L.056 175.623c-.33-1.548.862-3.02 2.46-3.02h65.596a2.5 2.5 0 012.462 2.03l12.713 63.642H12.946v-.026z" fill="#D1D1D1"/><path d="M7.338 177.374l12.028 56.815h59.48l-12.028-56.815H7.338z" fill="#EFEFEF"/><path d="M190.625 111.753h-7.283l-1.421-7.994s-7.612-4.085-6.141-11.977c0 0-32.049 11.495-37.048-1.294-6.597-16.875 17.332-21.062 37.048-20.58 19.717.457 18.296 25.63 18.296 25.63l-3.451 16.215z" fill="#1C2226"/><path d="M186.362 110.154c.457 4.263 4.288 7.334 8.551 6.877 4.263-.457 7.334-4.289 6.877-8.552-.457-4.263-4.288-7.333-8.551-6.877-4.263.457-7.334 4.289-6.877 8.552z" fill="#FCC9A7"/><path d="M316.188 351.779h77.979V475.51h-77.979V351.779z" fill="#B2B2B2"/><path d="M393.862 351.779h77.979V475.51h-77.979V351.779z" fill="#D1D1D1"/><path d="M434.717 201.734l3.324 66.509 15.631 48.772h-28.141l-14.617-42.022-4.567-47.756 28.37-25.503z" fill="#F7EBE7"/><path d="M435.503 434.199l-5.659 26.365 19.007 2.258 5.405-25.959-18.753-2.664z" fill="#FCC9A7"/><path d="M428.703 458.179c.482-1.421 2.004-1.929 3.045-1.015 2.03 1.801 5.684 4.009 11.089 3.476 5.608-.558 7.714-3.857 8.526-6.242.431-1.244 1.624-1.878 2.69-1.345l34.028 17.103c2.056 1.04 3.68 2.969 4.492 5.38.761 2.258-.762 4.694-2.893 4.643l-58.795-1.624c-2.309-.051-4.086-2.334-3.883-4.973l.965-12.942c.025-.203.05-.431.127-.634l.609-1.827z" fill="#1F252A"/><path d="M435.833 306.713h44.128s26.873-1.498 28.471 20.554c1.599 22.051-39.408 85.134-45.828 118.833l-36.896-3.045 26.568-91.631-66.077.381c-4.898.025-9.77-.685-14.388-2.284-12.866-4.466-32.506-10.861-21.798-46.285l85.82 3.477z" fill="#092330"/><path d="M401.779 434.3l-8.983 31.517 19.007 2.258 8.729-31.11-18.753-2.665z" fill="#FCC9A7"/><path d="M391.654 463.431c.483-1.421 2.005-1.928 3.045-1.015 2.03 1.802 5.684 4.01 11.089 3.477 5.608-.558 7.715-3.857 8.527-6.242.431-1.244 1.624-1.878 2.69-1.345l34.028 17.103c2.055 1.04 3.679 2.969 4.491 5.379.762 2.259-.761 4.695-2.892 4.644l-59.81-1.624c-2.31-.051-4.086-2.335-3.883-4.974l2.005-12.941c.025-.203.051-.431.127-.634l.583-1.828z" fill="#1F252A"/><path d="M383.103 175.598c-.99.964-45.27 12.256-45.27 12.256l9.465 25.147 48.416-3.654-12.611-33.749z" fill="#F7EBE7"/><path d="M401.373 181.662s28.852 10.531 33.344 20.072c-1.548 13.475-6.294 26.442-14.109 37.531-9.592 13.601-21.443 36.972-19.26 67.448h-83.409s4.491-85.744 29.181-118.656l54.253-6.395z" fill="#F7EBE7"/><path d="M391.908 195.264c-8.196-1.675-13.474-9.669-11.8-17.865l4.898-23.98 29.664 6.065-4.898 23.98c-1.674 8.196-9.668 13.474-17.864 11.8z" fill="#FCC9A7"/><path d="M382.976 161.793s3.121 19.438 18.245 20.605c13.246 1.015 11.977-18.143 11.977-18.143l-30.222-2.462z" fill="#F4BE9A"/><path d="M400.028 171.74l-2.613-.609c-13.12-3.045-21.29-16.138-18.245-29.232l3.451-14.946c3.045-13.119 16.138-21.29 29.232-18.245l2.614.609c13.119 3.045 21.29 16.139 18.245 29.232l-3.451 14.946c-3.045 13.12-16.139 21.29-29.233 18.245z" fill="#FCC9A7"/><path d="M387.391 148.116c.609 1.04 1.193 2.614 1.396 4.999.228 3.02 1.751 5.887 4.289 7.562 7.282 4.821 12.839-7.385 23.599-5.228 0 0 4.212.635 5.049 5.329.838 4.669 6.7-3.502 7.994-9.084 1.294-5.583 1.953 27.634-24.538 24.817 0 0-13.373-.431-22.382-14.058-.989-1.497-1.573-3.248-1.624-5.05-.076-2.664.305-6.699 2.842-9.592.889-1.065 2.665-.913 3.375.305zm-.025-7.537s11.444-3.781 9.516-20.503c0 0 28.42 26.898 49.482 7.156 0 0-9.414-2.512-13.297-8.958-7.08-11.748-27.431-27.938-43.722-9.211 0 0-19.818-3.07-14.134 27.456l12.155 4.06z" fill="#1C2226"/><path d="M387.366 140.579c-1.091 4.669-5.76 7.588-10.429 6.522a8.708 8.708 0 01-6.522-10.429c1.091-4.67 5.76-7.588 10.43-6.522 4.694 1.091 7.612 5.76 6.521 10.429z" fill="#FCC9A7"/><path d="M401.83 194.325l-12.256.228 8.577 17.763 9.262-17.027-5.583-.964z" fill="#0C2C40"/><path d="M379.068 176.384l15.784 18.423-10.277 11.799-18.905-25.984s4.847-7.79 13.398-4.238zm22.762 17.941l9.084 10.251 6.395-15.986s-1.675-7.181-6.902-5.811l-8.577 11.546z" fill="#FFF7F3"/><path d="M398.481 206.581s11.85 30.907 8.906 74.756l-11.672 10.658-13.627-13.119 14.692-74.3 1.701 2.005z" fill="#0C2C40"/><path d="M376.328 279.967l25.375 8.348 1.675 14.896-33.648-10.049 6.598-13.195z" fill="#FCC9A7"/><path d="M397.922 298.161c0 8.704 7.055 15.784 15.784 15.784 8.703 0 15.783-7.055 15.783-15.784 0-8.704-7.054-15.783-15.783-15.783-8.704 0-15.784 7.054-15.784 15.783z" fill="#FCC9A7"/><path d="M401.373 306.713h44.103s26.872-1.498 28.471 20.554c1.599 22.051-42.428 89.194-48.848 122.868l-36.896-3.045 29.588-95.691-66.078.38c-4.897.026-9.769-.685-14.388-2.283-12.865-4.466-32.505-10.861-21.797-46.285l85.845 3.502z" fill="#0C2C40"/><path d="M534.417 228.734h-76.254a5.32 5.32 0 00-5.201 4.212l-14.363 67.347c-.71 3.298 1.827 6.42 5.202 6.42h77.522a5.3 5.3 0 005.202-4.289l13.094-67.346a5.295 5.295 0 00-5.202-6.344z" fill="#B2B2B2"/><path d="M538.807 228.734h-76.228a5.321 5.321 0 00-5.202 4.212l-14.363 67.347c-.71 3.298 1.802 6.42 5.202 6.42h77.497a5.3 5.3 0 005.202-4.289l13.094-67.346a5.295 5.295 0 00-5.202-6.344z" fill="#D1D1D1"/><path d="M440.68 300.952h-52.096a2.865 2.865 0 00-2.868 2.868 2.865 2.865 0 002.868 2.867h53.111l-1.015-5.735z" fill="#B2B2B2"/><path d="M491.608 265.96a8.284 8.284 0 008.298 8.297c4.593 0 8.298-3.73 8.298-8.297 0-4.593-3.73-8.298-8.298-8.298a8.285 8.285 0 00-8.298 8.298z" fill="#fff"/><path d="M356.027 211.808l-27.862 44.991 66.687 23.802-9.135 19.742s-57.019-6.394-84.577-27.634c-2.537-1.953-3.806-5.125-3.375-8.297 1.294-10.15 6.826-34.79 30.4-69.808 4.796-7.131 14.337-9.288 21.772-4.974 7.74 4.466 10.455 14.363 6.09 22.178z" fill="#F7EBE7"/><path d="M377.114 274.257l-48.949-17.458 24.487-39.56m57.603 42.123l12.053-31.821m-45.98 71.457s-37.455-4.694-56.334-15.504" stroke="#EADDD8" stroke-width=".76" stroke-miterlimit="10" stroke-linecap="round" stroke-linejoin="round"/><defs><linearGradient id="paint0_linear" x1="90.866" y1="490.143" x2="555.149" y2="335.251" gradientUnits="userSpaceOnUse"><stop stop-color="#6CACE4"/><stop offset=".067" stop-color="#6CACE4"/><stop offset=".133" stop-color="#6DADE4"/><stop offset=".2" stop-color="#6FAEE5"/><stop offset=".267" stop-color="#72B0E5"/><stop offset=".333" stop-color="#75B3E6"/><stop offset=".4" stop-color="#79B6E7"/><stop offset=".467" stop-color="#7DB9E8"/><stop offset=".533" stop-color="#82BDEA"/><stop offset=".6" stop-color="#86C0EB"/><stop offset=".667" stop-color="#8AC3EC"/><stop offset=".733" stop-color="#8DC6ED"/><stop offset=".8" stop-color="#90C8ED"/><stop offset=".867" stop-color="#92C9EE"/><stop offset=".933" stop-color="#93CAEE"/><stop offset="1" stop-color="#93CAEE"/></linearGradient></defs></svg>