<svg width="132" height="30" fill="none" xmlns="http://www.w3.org/2000/svg"><g clip-path="url(#clip0)"><path d="M28.892.031l-.026.007-.007.002L.62 8.804a.88.88 0 00-.003 1.68l10.89 3.418-2.058 5.518a.88.88 0 001.132 1.131l5.518-2.056 3.419 10.89a.88.88 0 001.679-.003L29.96 1.14l.002-.007.007-.025A.879.879 0 0028.892.03zM3.83 9.65l20.756-6.441-12.103 9.158L3.83 9.649zm7.938 8.582l1.619-4.344 11.2-8.474-8.476 11.2-4.343 1.618zm8.582 7.938l-2.717-8.653 9.158-12.103L20.35 26.17z" fill="#0F1138"/><path d="M6.987 18.038a.88.88 0 00-1.243 0L.467 23.316a.88.88 0 001.244 1.243l5.276-5.276a.88.88 0 000-1.244zm4.974 4.974a.88.88 0 00-1.243 0L5.44 28.29a.88.88 0 001.244 1.243l5.276-5.276a.88.88 0 000-1.244zm-4.245-.728a.88.88 0 00-1.244 0L.258 28.5A.88.88 0 001.5 29.742l6.215-6.214a.88.88 0 000-1.244z" fill="#1A75E8"/></g><path d="M47.86 16.352h-4.5V21h-2.344V9.625h7.406v1.898h-5.063v2.938h4.5v1.89zM52.016 21H49.75v-8.453h2.266V21zm-2.399-10.64c0-.34.112-.618.336-.837.23-.218.54-.328.93-.328.385 0 .692.11.922.328.229.22.343.498.343.836 0 .344-.117.625-.351.844-.23.219-.534.328-.914.328s-.688-.11-.922-.328c-.23-.219-.344-.5-.344-.844zm6.343 2.187l.071.976c.604-.755 1.414-1.132 2.43-1.132.896 0 1.562.263 2 .789.437.526.661 1.312.672 2.36V21h-2.258v-5.406c0-.48-.104-.826-.313-1.04-.208-.218-.554-.327-1.039-.327-.635 0-1.112.27-1.43.812V21h-2.257v-8.453h2.125zm6.54 4.163c0-1.317.294-2.366.883-3.148.594-.78 1.404-1.171 2.43-1.171.822 0 1.502.307 2.039.921V9h2.265v12h-2.039l-.11-.898c-.562.703-1.286 1.054-2.171 1.054-.995 0-1.794-.39-2.399-1.172-.599-.786-.898-1.877-.898-3.273zm2.258.165c0 .792.138 1.398.414 1.82.276.422.677.633 1.203.633.698 0 1.19-.294 1.477-.883V15.11c-.282-.588-.769-.882-1.461-.882-1.089 0-1.633.882-1.633 2.648zm11.18-2.125l2.367-5.125h2.562l-3.734 7.25V21H74.75v-4.125l-3.734-7.25h2.57l2.352 5.125zm4.952 1.945c0-.838.162-1.586.485-2.242a3.554 3.554 0 011.39-1.523c.61-.36 1.316-.54 2.118-.54 1.14 0 2.07.35 2.789 1.047.724.698 1.127 1.646 1.21 2.844l.016.578c0 1.297-.361 2.339-1.085 3.125-.725.782-1.696 1.172-2.915 1.172-1.218 0-2.192-.39-2.921-1.172-.724-.78-1.086-1.843-1.086-3.187v-.102zm2.258.164c0 .802.151 1.417.454 1.844.302.422.734.633 1.296.633.547 0 .974-.208 1.282-.625.307-.422.46-1.094.46-2.016 0-.786-.153-1.396-.46-1.828-.308-.432-.74-.648-1.297-.648-.552 0-.98.216-1.281.648-.303.427-.454 1.091-.454 1.992zm12.204 3.281c-.558.678-1.329 1.016-2.313 1.016-.906 0-1.599-.26-2.078-.781-.474-.52-.716-1.284-.727-2.29v-5.538h2.258v5.46c0 .881.401 1.321 1.203 1.321.766 0 1.292-.265 1.578-.797v-5.984h2.266V21h-2.125l-.062-.86zm8.64-5.476a6.122 6.122 0 00-.812-.062c-.854 0-1.414.289-1.68.867V21h-2.258v-8.453h2.133l.063 1.008c.453-.776 1.08-1.164 1.882-1.164.25 0 .485.034.703.101l-.031 2.172z" fill="#0F1138"/><path d="M110.602 9.625h2.343V17.5c0 .724-.161 1.365-.484 1.922a3.241 3.241 0 01-1.352 1.281c-.583.302-1.242.453-1.976.453-1.203 0-2.141-.304-2.813-.914-.672-.614-1.008-1.482-1.008-2.601h2.36c0 .557.117.968.351 1.234.235.266.605.398 1.11.398.448 0 .805-.153 1.07-.46.266-.308.399-.745.399-1.313V9.625zm3.851 7.07c0-.838.162-1.586.485-2.242a3.548 3.548 0 011.39-1.523c.61-.36 1.315-.54 2.117-.54 1.141 0 2.071.35 2.789 1.047.724.698 1.128 1.646 1.211 2.844l.016.578c0 1.297-.362 2.339-1.086 3.125-.724.782-1.695 1.172-2.914 1.172s-2.193-.39-2.922-1.172c-.724-.78-1.086-1.843-1.086-3.187v-.102zm2.258.164c0 .802.151 1.417.453 1.844.302.422.734.633 1.297.633.547 0 .974-.208 1.281-.625.307-.422.461-1.094.461-2.016 0-.786-.154-1.396-.461-1.828-.307-.432-.739-.648-1.297-.648-.552 0-.979.216-1.281.648-.302.427-.453 1.091-.453 1.992zm14.758-.007c0 1.354-.289 2.411-.867 3.171-.579.756-1.386 1.133-2.422 1.133-.917 0-1.649-.351-2.196-1.054l-.101.898h-2.031V9h2.257v4.305c.521-.61 1.206-.914 2.055-.914 1.031 0 1.839.38 2.422 1.14.588.755.883 1.82.883 3.196v.125zm-2.258-.165c0-.854-.135-1.476-.406-1.867-.271-.396-.675-.593-1.211-.593-.719 0-1.214.294-1.485.882v3.336c.276.594.776.89 1.5.89.73 0 1.209-.358 1.438-1.077.109-.344.164-.867.164-1.57z" fill="#1A75E8"/><defs><clipPath id="clip0"><path fill="#fff" d="M0 0h30v30H0z"/></clipPath></defs></svg>