<svg width="123" height="23" fill="none" xmlns="http://www.w3.org/2000/svg"><path d="M6.059 10.313H4.113v6.75H0V0h4.113v6.598h1.582L8.977 0h4.98L9.27 7.875l5.273 9.188H9.68l-3.621-6.75zm16.699-5.93h3.96v12.68h-3.96V9.68l-3.48 7.383h-3.973V4.383h3.972v7.36l3.48-7.36zm17.367 12.68h-3.96v-4.7h-3.458v4.7h-3.95V4.383h3.95v4.945h3.457V4.383h3.961v12.68zm1.665-6.458c0-1.265.245-2.39.737-3.375.492-.992 1.2-1.753 2.121-2.285.922-.53 2.004-.797 3.246-.797 1.899 0 3.395.59 4.489 1.77 1.094 1.172 1.64 2.77 1.64 4.793v.14c0 1.977-.55 3.547-1.652 4.711-1.094 1.157-2.578 1.735-4.453 1.735-1.805 0-3.254-.54-4.348-1.617-1.093-1.086-1.683-2.555-1.77-4.407l-.01-.668zm3.948.247c0 1.171.184 2.03.551 2.578.367.547.91.82 1.629.82 1.406 0 2.125-1.082 2.156-3.246v-.399c0-2.273-.726-3.41-2.18-3.41-1.32 0-2.035.98-2.144 2.942l-.012.715zm24.539 6.211h-4.113V3.175h-6.129v13.886h-4.113V0h14.355v17.063zm7.453-5.532l2.11-7.148h4.23l-5.168 14.8-.222.54c-.735 1.64-2.032 2.46-3.89 2.46a6.164 6.164 0 01-1.63-.234v-2.824h.516c.555 0 .976-.082 1.265-.246.297-.156.516-.442.657-.856l.316-.843-4.406-12.797h4.219l2.004 7.148zm18.211-7.148v12.68h-3.949V7.43h-2.367l-.21 3.879c-.15 1.921-.583 3.359-1.302 4.312-.719.953-1.785 1.434-3.199 1.441h-1.242l-.047-3.023.41-.047c.524-.062.91-.41 1.16-1.043.258-.64.422-1.605.493-2.894l.246-5.672H95.94zm6.387 3.48h2.027c1.172 0 2.204.192 3.094.574.891.383 1.571.926 2.039 1.63.469.703.703 1.519.703 2.449 0 1.367-.531 2.468-1.593 3.304-1.055.828-2.496 1.242-4.325 1.242h-5.917V4.383h3.972v3.481zm0 3.035v3.141h2.004c.602 0 1.07-.137 1.406-.41.344-.281.516-.66.516-1.137 0-.469-.152-.851-.457-1.148-.305-.297-.793-.446-1.465-.446h-2.004zm14.695 3.352c.555 0 .985-.148 1.289-.445.305-.305.454-.727.446-1.266h3.703c0 1.39-.5 2.531-1.5 3.422-.992.89-2.273 1.336-3.844 1.336-1.844 0-3.297-.578-4.359-1.735-1.063-1.156-1.594-2.757-1.594-4.804v-.164c0-1.281.234-2.41.703-3.387.477-.984 1.16-1.738 2.051-2.262.891-.53 1.945-.797 3.164-.797 1.648 0 2.957.457 3.926 1.372.969.914 1.453 2.152 1.453 3.714h-3.703c0-.656-.16-1.16-.481-1.511-.32-.352-.75-.528-1.289-.528-1.023 0-1.621.653-1.793 1.957-.054.414-.082.985-.082 1.711 0 1.274.153 2.157.457 2.649.305.492.789.738 1.453.738z" fill="#fff"/></svg>