<?xml version="1.0" encoding="utf-8"?><svg viewBox="0 0 116 26" xmlns="http://www.w3.org/2000/svg" xmlns:xlink="http://www.w3.org/1999/xlink"><style>:root>svg{display:none}:root>svg:target{display:block}</style><svg viewBox="0 0 21 21" id="apps" xmlns="http://www.w3.org/2000/svg"><path fill-rule="evenodd" clip-rule="evenodd" d="M0 2.5a2.5 2.5 0 105 0 2.5 2.5 0 00-5 0zM2.5 13a2.5 2.5 0 110-5 2.5 2.5 0 010 5zm0 8a2.5 2.5 0 110-5 2.5 2.5 0 010 5zm8 0a2.5 2.5 0 110-5 2.5 2.5 0 010 5zm5.5-2.5a2.5 2.5 0 105 0 2.5 2.5 0 00-5 0zM10.5 13a2.5 2.5 0 110-5 2.5 2.5 0 010 5zM8 2.5a2.5 2.5 0 105 0 2.5 2.5 0 00-5 0zM18.5 13a2.5 2.5 0 110-5 2.5 2.5 0 010 5zM16 2.5a2.5 2.5 0 105 0 2.5 2.5 0 00-5 0z"/></svg><svg viewBox="0 0 22 26" id="notification" xmlns="http://www.w3.org/2000/svg"><path fill-rule="evenodd" clip-rule="evenodd" d="M3.67 22.454C1.643 22.454 0 20.866 0 18.91c0-1.298.727-2.456 1.838-3.074l-.005-4.61c0-4.083 2.836-7.521 6.723-8.548v-.313C8.556 1.058 9.65 0 11 0c1.35 0 2.444 1.058 2.444 2.364v.313c3.888 1.026 6.723 4.465 6.723 8.555v4.613C21.279 16.466 22 17.62 22 18.91c0 1.96-1.641 3.546-3.67 3.546h-3.663C14.665 24.412 13.02 26 11 26c-2.025 0-3.667-1.586-3.667-3.543l-3.664-.003zm6.108 0c0 .654.546 1.182 1.222 1.182.67 0 1.22-.53 1.222-1.181H9.778zm7.944-11.222v5.71c0 .328.27.661.596.743l.32.08c.535.133.918.604.918 1.144 0 .653-.547 1.182-1.225 1.182H3.669c-.675 0-1.225-.531-1.225-1.182 0-.542.381-1.011.916-1.144l.332-.083a.803.803 0 00.586-.74v-5.716c0-3.59 3.009-6.499 6.722-6.499 3.715 0 6.722 2.908 6.722 6.505z"/></svg><svg viewBox="0 0 19 19" id="search" xmlns="http://www.w3.org/2000/svg"><path fill-rule="evenodd" clip-rule="evenodd" d="M17.9 16.486l-3.58-3.58a8 8 0 10-1.415 1.413l3.58 3.58a1 1 0 101.416-1.413zM13.198 11A6 6 0 112.804 5a6 6 0 0110.393 6z"/></svg><svg viewBox="0 0 27 20" id="video" xmlns="http://www.w3.org/2000/svg"><path fill-rule="evenodd" clip-rule="evenodd" d="M22.208 2.868L18.41 5.682v-3.18C18.41 1.119 17.31 0 15.955 0h-13.5C1.095 0 0 1.12 0 2.503v14.994C0 18.882 1.099 20 2.454 20h13.501c1.358 0 2.454-1.12 2.454-2.503v-3.179l3.8 2.814a2.19 2.19 0 001.111.368h2.45c.686 0 1.23-.561 1.23-1.253V3.753c0-.692-.551-1.253-1.23-1.253h-2.45a2.16 2.16 0 00-1.112.368zM2.455 17.5v-15h13.5v15h-13.5zm2.454-3.75c0-.69.55-1.25 1.231-1.25h6.13c.679 0 1.23.555 1.23 1.25 0 .69-.55 1.25-1.23 1.25H6.14c-.68 0-1.23-.555-1.23-1.25zM23.511 15l-5.087-3.762V8.762l5.083-3.765 1.038.001v10L23.512 15z"/></svg><svg fill="none" viewBox="0 0 116 25" id="youtube-logo1" xmlns="http://www.w3.org/2000/svg"><path fill="#fff" d="M7.941 3.999h21v17h-21z"/><path fill-rule="evenodd" clip-rule="evenodd" d="M11.615 24.822l7.517.136c.012 0 .036 0 .036.017 4.186.077 8.265-.165 12.439-.466 3.33-.23 4.12-2.612 4.533-5.454.514-3.431.628-6.904.359-10.36a166.79 166.79 0 01-.038-.493c-.25-3.306-.532-7.023-4.495-7.708-.844-.147-1.705-.277-2.56-.3-8.097-.26-16.266-.325-24.381.23C2.62.576 1.065 1.98.67 4.331a50.658 50.658 0 00-.459 12.88c.266 2.974.575 6.45 4.143 7.168 1.92.394 3.876.41 5.835.425.475.004.95.008 1.425.017zm7.056-9.3l-3.958 2.242V7.163c1.43.808 2.849 1.613 4.27 2.419 1.688.957 3.378 1.915 5.089 2.881a7174.704 7174.704 0 00-5.401 3.059z" fill="red"/><path fill-rule="evenodd" clip-rule="evenodd" d="M96.724 22.747c.084-.316.17-.642.265-1.02l.18.253c.066.092.118.166.172.236 1.561 2.022 4.707 1.668 5.67-.667.293-.707.526-1.48.562-2.234.09-2.47.126-4.935.078-7.406-.024-.96-.222-1.946-.527-2.865-.472-1.48-1.806-2.158-3.367-1.858-.98.2-1.74.72-2.326 1.516a4.004 4.004 0 01-.119.144c-.057.067-.129.151-.228.274V.866h-3.432v22.376h2.942l.13-.495zm.432-3.084v-8.184c0-.69.335-1.209.885-1.575.73-.477 1.471-.235 1.74.584.144.454.258.938.258 1.404a392.174 392.174 0 01-.144 7.505c-.006.266-.12.531-.233.785-.27.607-.808.86-1.471.707-.676-.153-1.035-.56-1.035-1.226zM87.827 7.505h3.594v15.748h-2.805c-.092-.54-.184-1.094-.29-1.73l-.033-.198c-.124.18-.216.318-.297.441v.001l-.127.19c-.933 1.326-2.255 1.78-3.816 1.538-1.333-.212-2.135-1.226-2.314-2.889a13.855 13.855 0 01-.078-1.492c-.008-2.457-.005-4.92-.002-7.38V11.725l.002-3.678v-.554h3.636v.643l-.001 2.67c-.002 2.67-.005 5.337.013 8.008 0 .507.054 1.032.144 1.539.102.518.484.707.998.672.832-.065 1.406-.672 1.406-1.486V8.2c-.03-.23-.03-.442-.03-.695zm-21.134-.012H63.08l-.006.424c0 3.827 0 7.671.012 11.498 0 .478.048.95.113 1.427.24 1.527 1.023 2.459 2.303 2.647 1.597.242 2.906-.253 3.839-1.603a25.6 25.6 0 01.383-.578l.166.969v.002l.169.974h2.792V7.516h-3.594v11.988c-.006.82-.502 1.38-1.321 1.491-.592.077-.94-.112-1.077-.696a7.277 7.277 0 01-.155-1.527c-.018-2.648-.016-5.3-.014-7.955l.002-2.658v-.666zM61.227 15.9c-.01.424-.035.849-.06 1.273l-.018.319-.035.425c-.123 1.547-.28 3.525-1.472 4.587-.831.73-1.884.996-2.972 1.032a9.286 9.286 0 01-1.46-.054c-2.29-.341-3.354-1.338-3.737-3.82-.437-2.866-.472-5.779.048-8.644.538-2.966 2.392-4.016 5.274-3.82 2.692.188 3.894 1.927 4.21 4.404.174 1.42.258 2.86.222 4.298zm-3.656-1.407c-.002.288-.004.577-.004.864 0 .934-.037 1.868-.073 2.8-.017.428-.033.854-.047 1.28 0 .343-.12.69-.257 1.009-.173.413-.484.643-.957.643-.484 0-.855-.236-.998-.667-.373-1.11-.333-2.306-.293-3.484.01-.317.021-.632.024-.944.011-1.58.023-3.166.023-4.746 0-.217.064-.439.127-.656l.011-.04c.191-.62.562-.937 1.088-.95.539-.011.97.307 1.113.974.125.577.203 1.167.227 1.75.026.721.02 1.445.016 2.167zm-11.118-3.336c.227-1.101.45-2.19.69-3.282.192-.884.394-1.769.596-2.654.233-1.02.466-2.042.684-3.065.102-.466.293-.578.742-.566.684.025 1.378.02 2.092.015.29-.001.583-.003.88-.003-.307 1.115-.61 2.18-.907 3.228l-.08.28a2797.533 2797.533 0 00-3.056 10.743 3.265 3.265 0 00-.113.872 480.814 480.814 0 00-.003 3.91c.001.652.003 1.304.003 1.957v.637h-3.51l-.015-.177c-.011-.118-.022-.236-.022-.354 0-.354-.009-.708-.018-1.063-.02-.755-.039-1.51.03-2.256.225-2.301-.394-4.44-1.012-6.578-.09-.311-.18-.622-.267-.934-.455-1.622-.912-3.246-1.37-4.87a4083.27 4083.27 0 01-1.37-4.87 2.518 2.518 0 01-.062-.271 4.287 4.287 0 00-.051-.237h3.582C44.65 5.2 45.41 8.778 46.2 12.393l.254-1.235zm62.377 5.344h6.052c0-.73.006-1.441.012-2.142.008-.82.015-1.628.011-2.44a9.824 9.824 0 00-.293-1.957c-.34-1.368-1.124-2.411-2.595-2.665a10.711 10.711 0 00-2.781-.1c-1.692.165-2.787 1.15-3.289 2.754-.125.389-.239.772-.305 1.173-.371 2.406-.305 4.829-.125 7.229.065.973.37 1.945.693 2.877.347.997 1.119 1.645 2.153 1.946 1.399.407 2.805.407 4.174-.124 1.741-.666 2.775-2.824 2.201-4.505a173.9 173.9 0 01-2.102-.105h-.002l-.904-.048-.006.103c-.015.28-.026.5-.048.705-.024.26-.06.513-.113.766-.168.779-.587 1.132-1.304 1.12-.688-.005-1.124-.341-1.214-1.126-.091-.814-.129-1.634-.167-2.479-.015-.324-.03-.65-.048-.982zm2.613-2.07l.001-.886c.003-.862.005-1.696-.013-2.533 0-.265-.102-.543-.203-.796-.204-.495-.628-.631-1.137-.631-.508 0-.831.254-.956.708-.313 1.112-.287 2.245-.26 3.384.006.255.012.51.014.766.915-.011 1.747-.011 2.554-.011zm-39.374-9.94h3.558l.006 18.738h3.523V4.474h3.534V1.65H72.069v2.842z" fill="#000"/></svg></svg>