<svg width="0" height="0" class="hidden">
  <symbol xmlns="http://www.w3.org/2000/svg" viewBox="0 0 12 14" id="user">
    <path d="M11.415 10.931a5.845 5.845 0 00-1.26-1.867 5.87 5.87 0 00-1.867-1.26l-.019-.007a3.874 3.874 0 10-4.537.002l-.02.007a5.82 5.82 0 00-1.866 1.26 5.87 5.87 0 00-1.72 4.025.125.125 0 00.124.128h.938a.125.125 0 00.125-.122 4.658 4.658 0 011.372-3.192A4.657 4.657 0 016 8.53c1.254 0 2.43.488 3.316 1.374a4.658 4.658 0 011.372 3.192.124.124 0 00.125.122h.937a.125.125 0 00.125-.128 5.823 5.823 0 00-.46-2.16zM6 7.344a2.67 2.67 0 01-1.9-.788 2.67 2.67 0 01-.787-1.9c0-.717.28-1.392.787-1.9A2.67 2.67 0 016 1.97c.718 0 1.393.28 1.9.787a2.67 2.67 0 01.788 1.9 2.67 2.67 0 01-.788 1.9 2.67 2.67 0 01-1.9.788z"></path>
  </symbol>

   <symbol xmlns="http://www.w3.org/2000/svg" viewBox="0 0 15 13" id="draft">
    <path d="M14.42 8.967H5.115l.468-.951 7.762-.014a.543.543 0 00.534-.447l1.075-6.017a.542.542 0 00-.532-.64L4.547.866 4.462.469a.555.555 0 00-.54-.438H1.508a.552.552 0 100 1.103h1.967l.368 1.754.908 4.395L3.583 9.19a.546.546 0 00-.047.575.55.55 0 00.492.303h.981a1.604 1.604 0 001.281 2.567 1.604 1.604 0 001.282-2.567h2.517a1.604 1.604 0 001.281 2.567 1.604 1.604 0 001.281-2.567h1.77a.553.553 0 00.552-.552.554.554 0 00-.553-.55zM4.776 1.953l8.997.03-.881 4.934-7.067.013-1.049-4.977zm1.514 9.574a.495.495 0 010-.988.495.495 0 010 .988zm5.08 0a.495.495 0 010-.988.495.495 0 010 .988z"></path>
  </symbol>
</svg>