<svg xmlns="http://www.w3.org/2000/svg" xmlns:xlink="http://www.w3.org/1999/xlink" viewBox="0 0 545 558"><style>:root&gt;svg{display:none}:root&gt;svg:target{display:block}</style><svg xmlns="http://www.w3.org/2000/svg" id="browser" fill="none" viewBox="0 0 28 24"><path fill="#fff" d="M21.636 0H6.364A5.461 5.461 0 00.909 5.455v13.09A5.461 5.461 0 006.364 24h15.272a5.461 5.461 0 005.455-5.454V5.455A5.461 5.461 0 0021.636 0zM6.364 2.182h15.272a3.273 3.273 0 013.273 3.273v1.09H3.091v-1.09a3.273 3.273 0 013.273-3.273zm15.272 19.636H6.364a3.273 3.273 0 01-3.273-3.273V8.728h21.818v9.819a3.272 3.272 0 01-3.273 3.272zm0-8.727a1.091 1.091 0 01-1.09 1.09H7.455a1.09 1.09 0 110-2.181h13.09a1.09 1.09 0 011.091 1.09zm-4.363 4.364a1.09 1.09 0 01-1.091 1.09H7.455a1.09 1.09 0 010-2.181h8.727a1.091 1.091 0 011.09 1.09zM4.182 4.364a1.09 1.09 0 112.182 0 1.09 1.09 0 01-2.182 0zm3.273 0a1.09 1.09 0 112.181 0 1.09 1.09 0 01-2.181 0zm3.272 0a1.091 1.091 0 112.183 0 1.091 1.091 0 01-2.183 0z"/></svg><svg xmlns="http://www.w3.org/2000/svg" id="brush" fill="none" viewBox="0 0 24 24"><path fill="#111238" d="M19 0H5a5.006 5.006 0 00-5 5v5a7.009 7.009 0 007 7h2v4a3 3 0 006 0v-4h2a7.009 7.009 0 007-7V5a5.006 5.006 0 00-5-5zM2 5a3 3 0 013-3h5v1a1 1 0 002 0V2h2v3a1 1 0 002 0V2h2v5a1 1 0 002 0V2.184A3 3 0 0122 5v5H2V5zm15 10h-3a1 1 0 00-1 1v5a1 1 0 01-2 0v-5a1 1 0 00-1-1H7a5 5 0 01-4.576-3h19.152A5 5 0 0117 15z"/></svg><svg xmlns="http://www.w3.org/2000/svg" id="camera_1" fill="none" viewBox="0 0 24 24"><g clip-path="url(#cclip0)"><path fill="#111238" d="M22.9 8.955a1.987 1.987 0 00-2.092.184L18.975 10.5A5.007 5.007 0 0014 6h-.085L9.793 1.879A2.976 2.976 0 007.672 1H1a1 1 0 000 2h6.672c.265 0 .52.106.707.293L11.086 6H5a5.006 5.006 0 00-5 5v8a5.006 5.006 0 005 5h9a5.007 5.007 0 004.975-4.5l1.83 1.364a2 2 0 003.2-1.6v-8.521A1.988 1.988 0 0022.9 8.955zM17 19a3 3 0 01-3 3H5a3 3 0 01-3-3v-8a3 3 0 013-3h9a3 3 0 013 3v8zm5 .257l-3-2.236v-4.042l3-2.236v8.514z"/></g><defs><clipPath id="cclip0"><path fill="#fff" d="M0 0h24v24H0z"/></clipPath></defs></svg><svg xmlns="http://www.w3.org/2000/svg" id="edit_1" fill="none" viewBox="0 0 24 24"><g fill="#111238" clip-path="url(#dclip0)"><path d="M18.656.93L6.464 13.122A4.967 4.967 0 005 16.657V18a1 1 0 001 1h1.343a4.965 4.965 0 003.535-1.464L23.07 5.344a3.125 3.125 0 000-4.414 3.194 3.194 0 00-4.414 0zm3 3L9.464 16.122A3.02 3.02 0 017.343 17H7v-.343a3.02 3.02 0 01.878-2.121L20.07 2.344a1.148 1.148 0 011.586 0 1.123 1.123 0 010 1.586z"/><path d="M23 8.979a1 1 0 00-1 1V15h-4a3 3 0 00-3 3v4H5a3 3 0 01-3-3V5a3 3 0 013-3h9.042a1 1 0 100-2H5a5.006 5.006 0 00-5 5v14a5.006 5.006 0 005 5h11.343a4.967 4.967 0 003.536-1.464l2.656-2.658A4.969 4.969 0 0024 16.343V9.979a1 1 0 00-1-1zm-4.535 12.143c-.402.401-.91.679-1.465.8V18a1 1 0 011-1h3.925a3.016 3.016 0 01-.8 1.464l-2.66 2.658z"/></g><defs><clipPath id="dclip0"><path fill="#fff" d="M0 0h24v24H0z"/></clipPath></defs></svg><svg xmlns="http://www.w3.org/2000/svg" id="fingerprint" fill="none" viewBox="0 0 24 25"><path fill="#111238" d="M6.465 22.285a1 1 0 01-.515-1.857C9.493 18.3 9.493 13.73 9.493 11a3 3 0 116 0 1 1 0 01-2 0 1 1 0 00-2 0c0 2.947 0 8.434-4.514 11.143a1.001 1.001 0 01-.514.142zm4.963 1.421c2.282-2.3 3.615-5.534 3.961-9.62A1.001 1.001 0 0014.48 13a.983.983 0 00-1.082.911c-.31 3.657-1.419 6.4-3.388 8.381a1 1 0 101.42 1.41v.004zm5.2-.186a17.803 17.803 0 001.508-3.18 1 1 0 00-1.88-.679c-.353.982-.801 1.927-1.339 2.821a.998.998 0 00.337 1.375 1 1 0 001.374-.337zm2.365-6.329a31.47 31.47 0 00.5-6.19A7 7 0 007.28 6.332a1 1 0 101.49 1.334A5 5 0 0117.492 11a29.695 29.695 0 01-.462 5.81 1 1 0 001.962.381zm-11.5-6.19c0-.28.023-.559.07-.834a1 1 0 10-1.97-.334 6.97 6.97 0 00-.1 1.167c0 4.645-1.346 7-4 7a1 1 0 100 2c3.87 0 6-3.2 6-9zm13.7 12.413A29.762 29.762 0 0023.493 11a10.865 10.865 0 00-1.1-4.794 1.002 1.002 0 00-1.8.875 8.9 8.9 0 01.9 3.92 27.912 27.912 0 01-2.119 11.585 1 1 0 001.82.828zM3.493 14v-3a9.01 9.01 0 019-9 8.911 8.911 0 015.4 1.8 1 1 0 101.2-1.6 10.9 10.9 0 00-6.6-2.2 11.013 11.013 0 00-11 11v3a1 1 0 002 0z"/></svg><svg xmlns="http://www.w3.org/2000/svg" id="hero-image" fill="none" viewBox="0 0 545 558"><path fill="url(#fpaint0_linear)" d="M391.246 41.355c39.314 13.728 86.116 24.96 93.604 53.042 7.489 28.706-24.337 74.26-30.577 117.318-5.617 42.434 14.352 81.124 3.744 103.589-11.233 22.465-53.043 28.082-86.74 57.411-34.322 29.954-59.907 83.62-97.973 105.461-38.69 22.466-89.861 12.481-114.198-23.089-24.337-34.946-21.841-95.477-29.954-139.783-8.112-44.306-26.833-72.387-34.321-104.837-7.489-32.45-4.368-69.268 9.36-104.213 13.105-34.946 36.818-68.02 68.644-86.74C205.284.791 245.222-3.577 282.04 2.663c36.818 6.865 69.268 24.338 109.206 38.69z"/><path fill="#1C2226" d="M191.259 81.759s7.08.558 7.689 10.353.66 38.215-12.637 39.966c-13.297 1.751-3.73-46.69-3.73-46.69l8.678-3.63zM145.076 90.539s-5.38 14.997 5.354 17.737c10.759 2.741 8.755-19.006 8.755-19.006l-14.109 1.269z"/><path fill="#FCC9A7" d="M206.231 184.732l33.267 46.894-1.852-4.39 15.352 68.819 17.103-3.198-10.582-69.706a9.573 9.573 0 00-1.624-4.06l-.228-.33-33.267-46.894-18.169 12.865z"/><path fill="#FCC9A7" d="M265.736 317.167c8.755-2.614 13.703-11.85 11.089-20.58-2.613-8.754-11.85-13.702-20.579-11.089-8.755 2.614-13.703 11.851-11.089 20.58 2.613 8.729 11.825 13.703 20.579 11.089zM134.215 183.134l-21.036 64.301 11.292-7.663-68.514-1.853-1.09 17.383 68.208 6.724c5.075.508 9.643-2.639 11.166-7.283l.126-.38 21.037-64.302-21.189-6.927zM137.945 512.025l-10.302 28.395-15.073-13.55 9.617-22.762 15.758 7.917z"/><path fill="#1F252A" d="M133.606 533.848c0-1.396-1.192-2.309-2.385-1.802-2.335.99-6.217 1.853-10.81-.202-4.796-2.157-5.684-5.685-5.684-8.019 0-1.218-.863-2.132-1.979-1.979l-35.095 5.049c-2.131.305-4.136 1.548-5.557 3.451-1.345 1.777-.71 4.39 1.167 4.949l52.401 15.935c2.055.635 4.288-.862 4.897-3.248l2.969-11.723c.051-.203.076-.406.076-.584v-1.827z"/><path fill="#FCC9A7" d="M274.973 492.74l11.419 22.356-13.297 11.368-14.362-26.822 16.24-6.902z"/><path fill="#1F252A" d="M288.777 510.173c-1.066-.888-2.537-.584-2.918.66-.761 2.436-2.588 5.937-7.156 8.12-4.745 2.258-8.018.634-9.795-.863-.939-.787-2.207-.711-2.791.228l-18.879 30.02c-1.142 1.827-1.498 4.136-.965 6.445.482 2.182 2.868 3.375 4.543 2.309l46.081-29.638c1.802-1.168 2.132-3.832.711-5.837l-7.029-9.845a3.259 3.259 0 00-.406-.432l-1.396-1.167z"/><path fill="#092330" d="M149.593 283.037l45.067 125.025 63.794 105.714 28.445-14.058-56.714-105.384-31.11-105.41-49.482-5.887z"/><path fill="#0C2C40" d="M219.223 284.889s8.526 16.114-4.72 41.87l-41.133 78.486-31.339 118.96-31.136-10.86 29.791-120.305 32.201-93.864-23.32-16.114 69.656 1.827z"/><path fill="#DF945B" d="M180.424 145.984l35.094 7.207a16.717 16.717 0 0110.252 6.648l22.33 31.11-29.841 19.514 10.759 85.186s-12.155 37.2-86.302 7.536c0 0 6.395-70.594 2.106-116.575l2.183-30.273 33.419-10.353z"/><path fill="#DF945B" d="M146.979 156.312l-5.836 2.131a16.716 16.716 0 00-10.176 10.531l-12.155 37.074 35.729 6.597-7.562-56.333z"/><path fill="#FCC9A7" d="M33.17 241.65c0 9.135 7.41 16.544 16.545 16.544 9.135 0 16.52-7.409 16.52-16.544 0-9.136-7.41-16.52-16.52-16.52-9.135 0-16.545 7.384-16.545 16.52zM170.502 156.718l3.984 2.208c7.74-.635 15.022-2.284 14.388-10.024l-1.853-22.685-28.039 2.309 1.852 22.685c.634 7.74 1.929 6.141 9.668 5.507z"/><path fill="#F4BE9A" d="M187.402 128.957s-3.857 16.799-17.966 16.215c-12.332-.533-11.165-18.955-11.165-18.955l29.131 2.74z"/><path fill="#FCC9A7" d="M171.847 139.209l2.385-.254c11.927-1.294 20.554-12.003 19.286-23.954l-1.472-13.602c-1.294-11.926-12.003-20.554-23.955-19.285l-2.385.254c-11.926 1.294-20.554 12.002-19.285 23.954l1.472 13.601c1.294 11.927 12.002 20.555 23.954 19.286z"/><path stroke="#CE804A" stroke-linecap="round" stroke-linejoin="round" stroke-miterlimit="10" stroke-width=".769" d="M216.203 204.525l-9.033-10.657M146.167 211.098l-1.37-22.001"/><path fill="#EDA472" d="M170.502 156.718l17.814-10.759c7.612-3.172 12.459 4.187 12.459 4.187l-21.214 20.808-9.059-14.236z"/><path fill="#EDA472" d="M170.502 156.718l-8.627 13.347-8.628-15.707s3.4-5.354 8.044-4.111l9.211 6.471z"/><path fill="#D1D1D1" d="M124.014 242.335H16.194a3.238 3.238 0 01-3.248-3.248 3.238 3.238 0 013.248-3.248h107.82a3.238 3.238 0 013.248 3.248 3.254 3.254 0 01-3.248 3.248z"/><path fill="#D1D1D1" d="M12.946 238.249L.056 175.623c-.33-1.548.862-3.02 2.46-3.02h65.596a2.5 2.5 0 012.462 2.03l12.713 63.642H12.946v-.026z"/><path fill="#EFEFEF" d="M7.338 177.374l12.028 56.815h59.48l-12.028-56.815H7.338z"/><path fill="#1C2226" d="M190.625 111.753h-7.283l-1.421-7.994s-7.612-4.085-6.141-11.977c0 0-32.049 11.495-37.048-1.294-6.597-16.875 17.332-21.062 37.048-20.58 19.717.457 18.296 25.63 18.296 25.63l-3.451 16.215z"/><path fill="#FCC9A7" d="M186.362 110.154c.457 4.263 4.288 7.334 8.551 6.877 4.263-.457 7.334-4.289 6.877-8.552-.457-4.263-4.288-7.333-8.551-6.877-4.263.457-7.334 4.289-6.877 8.552z"/><path fill="#B2B2B2" d="M316.188 351.779h77.979V475.51h-77.979V351.779z"/><path fill="#D1D1D1" d="M393.862 351.779h77.979V475.51h-77.979V351.779z"/><path fill="#F7EBE7" d="M434.717 201.734l3.324 66.509 15.631 48.772h-28.141l-14.617-42.022-4.567-47.756 28.37-25.503z"/><path fill="#FCC9A7" d="M435.503 434.199l-5.659 26.365 19.007 2.258 5.405-25.959-18.753-2.664z"/><path fill="#1F252A" d="M428.703 458.179c.482-1.421 2.004-1.929 3.045-1.015 2.03 1.801 5.684 4.009 11.089 3.476 5.608-.558 7.714-3.857 8.526-6.242.431-1.244 1.624-1.878 2.69-1.345l34.028 17.103c2.056 1.04 3.68 2.969 4.492 5.38.761 2.258-.762 4.694-2.893 4.643l-58.795-1.624c-2.309-.051-4.086-2.334-3.883-4.973l.965-12.942c.025-.203.05-.431.127-.634l.609-1.827z"/><path fill="#092330" d="M435.833 306.713h44.128s26.873-1.498 28.471 20.554c1.599 22.051-39.408 85.134-45.828 118.833l-36.896-3.045 26.568-91.631-66.077.381c-4.898.025-9.77-.685-14.388-2.284-12.866-4.466-32.506-10.861-21.798-46.285l85.82 3.477z"/><path fill="#FCC9A7" d="M401.779 434.3l-8.983 31.517 19.007 2.258 8.729-31.11-18.753-2.665z"/><path fill="#1F252A" d="M391.654 463.431c.483-1.421 2.005-1.928 3.045-1.015 2.03 1.802 5.684 4.01 11.089 3.477 5.608-.558 7.715-3.857 8.527-6.242.431-1.244 1.624-1.878 2.69-1.345l34.028 17.103c2.055 1.04 3.679 2.969 4.491 5.379.762 2.259-.761 4.695-2.892 4.644l-59.81-1.624c-2.31-.051-4.086-2.335-3.883-4.974l2.005-12.941c.025-.203.051-.431.127-.634l.583-1.828z"/><path fill="#F7EBE7" d="M383.103 175.598c-.99.964-45.27 12.256-45.27 12.256l9.465 25.147 48.416-3.654-12.611-33.749z"/><path fill="#F7EBE7" d="M401.373 181.662s28.852 10.531 33.344 20.072c-1.548 13.475-6.294 26.442-14.109 37.531-9.592 13.601-21.443 36.972-19.26 67.448h-83.409s4.491-85.744 29.181-118.656l54.253-6.395z"/><path fill="#FCC9A7" d="M391.908 195.264c-8.196-1.675-13.474-9.669-11.8-17.865l4.898-23.98 29.664 6.065-4.898 23.98c-1.674 8.196-9.668 13.474-17.864 11.8z"/><path fill="#F4BE9A" d="M382.976 161.793s3.121 19.438 18.245 20.605c13.246 1.015 11.977-18.143 11.977-18.143l-30.222-2.462z"/><path fill="#FCC9A7" d="M400.028 171.74l-2.613-.609c-13.12-3.045-21.29-16.138-18.245-29.232l3.451-14.946c3.045-13.119 16.138-21.29 29.232-18.245l2.614.609c13.119 3.045 21.29 16.139 18.245 29.232l-3.451 14.946c-3.045 13.12-16.139 21.29-29.233 18.245z"/><path fill="#1C2226" d="M387.391 148.116c.609 1.04 1.193 2.614 1.396 4.999.228 3.02 1.751 5.887 4.289 7.562 7.282 4.821 12.839-7.385 23.599-5.228 0 0 4.212.635 5.049 5.329.838 4.669 6.7-3.502 7.994-9.084 1.294-5.583 1.953 27.634-24.538 24.817 0 0-13.373-.431-22.382-14.058-.989-1.497-1.573-3.248-1.624-5.05-.076-2.664.305-6.699 2.842-9.592.889-1.065 2.665-.913 3.375.305zM387.366 140.579s11.444-3.781 9.516-20.503c0 0 28.42 26.898 49.482 7.156 0 0-9.414-2.512-13.297-8.958-7.08-11.748-27.431-27.938-43.722-9.211 0 0-19.818-3.07-14.134 27.456l12.155 4.06z"/><path fill="#FCC9A7" d="M387.366 140.579c-1.091 4.669-5.76 7.588-10.429 6.522a8.708 8.708 0 01-6.522-10.429c1.091-4.67 5.76-7.588 10.43-6.522 4.694 1.091 7.612 5.76 6.521 10.429z"/><path fill="#0C2C40" d="M401.83 194.325l-12.256.228 8.577 17.763 9.262-17.027-5.583-.964z"/><path fill="#FFF7F3" d="M379.068 176.384l15.784 18.423-10.277 11.799-18.905-25.984s4.847-7.79 13.398-4.238zM401.83 194.325l9.084 10.251 6.395-15.986s-1.675-7.181-6.902-5.811l-8.577 11.546z"/><path fill="#0C2C40" d="M398.481 206.581s11.85 30.907 8.906 74.756l-11.672 10.658-13.627-13.119 14.692-74.3 1.701 2.005z"/><path fill="#FCC9A7" d="M376.328 279.967l25.375 8.348 1.675 14.896-33.648-10.049 6.598-13.195z"/><path fill="#FCC9A7" d="M397.922 298.161c0 8.704 7.055 15.784 15.784 15.784 8.703 0 15.783-7.055 15.783-15.784 0-8.704-7.054-15.783-15.783-15.783-8.704 0-15.784 7.054-15.784 15.783z"/><path fill="#0C2C40" d="M401.373 306.713h44.103s26.872-1.498 28.471 20.554c1.599 22.051-42.428 89.194-48.848 122.868l-36.896-3.045 29.588-95.691-66.078.38c-4.897.026-9.769-.685-14.388-2.283-12.865-4.466-32.505-10.861-21.797-46.285l85.845 3.502z"/><path fill="#B2B2B2" d="M534.417 228.734h-76.254a5.32 5.32 0 00-5.201 4.212l-14.363 67.347c-.71 3.298 1.827 6.42 5.202 6.42h77.522a5.3 5.3 0 005.202-4.289l13.094-67.346a5.295 5.295 0 00-5.202-6.344z"/><path fill="#D1D1D1" d="M538.807 228.734h-76.228a5.321 5.321 0 00-5.202 4.212l-14.363 67.347c-.71 3.298 1.802 6.42 5.202 6.42h77.497a5.3 5.3 0 005.202-4.289l13.094-67.346a5.295 5.295 0 00-5.202-6.344z"/><path fill="#B2B2B2" d="M440.68 300.952h-52.096a2.865 2.865 0 00-2.868 2.868 2.865 2.865 0 002.868 2.867h53.111l-1.015-5.735z"/><path fill="#fff" d="M491.608 265.96a8.284 8.284 0 008.298 8.297c4.593 0 8.298-3.73 8.298-8.297 0-4.593-3.73-8.298-8.298-8.298a8.285 8.285 0 00-8.298 8.298z"/><path fill="#F7EBE7" d="M356.027 211.808l-27.862 44.991 66.687 23.802-9.135 19.742s-57.019-6.394-84.577-27.634c-2.537-1.953-3.806-5.125-3.375-8.297 1.294-10.15 6.826-34.79 30.4-69.808 4.796-7.131 14.337-9.288 21.772-4.974 7.74 4.466 10.455 14.363 6.09 22.178z"/><path stroke="#EADDD8" stroke-linecap="round" stroke-linejoin="round" stroke-miterlimit="10" stroke-width=".76" d="M377.114 274.257l-48.949-17.458 24.487-39.56M410.255 259.362l12.053-31.821M376.328 298.998s-37.455-4.694-56.334-15.504"/><defs><linearGradient id="fpaint0_linear" x1="90.866" x2="555.149" y1="490.143" y2="335.251" gradientUnits="userSpaceOnUse"><stop stop-color="#6CACE4"/><stop offset=".067" stop-color="#6CACE4"/><stop offset=".133" stop-color="#6DADE4"/><stop offset=".2" stop-color="#6FAEE5"/><stop offset=".267" stop-color="#72B0E5"/><stop offset=".333" stop-color="#75B3E6"/><stop offset=".4" stop-color="#79B6E7"/><stop offset=".467" stop-color="#7DB9E8"/><stop offset=".533" stop-color="#82BDEA"/><stop offset=".6" stop-color="#86C0EB"/><stop offset=".667" stop-color="#8AC3EC"/><stop offset=".733" stop-color="#8DC6ED"/><stop offset=".8" stop-color="#90C8ED"/><stop offset=".867" stop-color="#92C9EE"/><stop offset=".933" stop-color="#93CAEE"/><stop offset="1" stop-color="#93CAEE"/></linearGradient></defs></svg><svg xmlns="http://www.w3.org/2000/svg" id="logo" fill="none" viewBox="0 0 132 30"><g clip-path="url(#gclip0)"><path fill="#0F1138" d="M28.892.031l-.026.007-.007.002L.62 8.804a.88.88 0 00-.003 1.68l10.89 3.418-2.058 5.518a.88.88 0 001.132 1.131l5.518-2.056 3.419 10.89a.88.88 0 001.679-.003L29.96 1.14l.002-.007.007-.025A.879.879 0 0028.892.03zM3.83 9.65l20.756-6.441-12.103 9.158L3.83 9.649zm7.938 8.582l1.619-4.344 11.2-8.474-8.476 11.2-4.343 1.618zm8.582 7.938l-2.717-8.653 9.158-12.103-6.441 20.756z"/><path fill="#1A75E8" d="M6.987 18.038a.88.88 0 00-1.243 0L.467 23.316a.88.88 0 001.244 1.243l5.276-5.276a.88.88 0 000-1.244zM11.961 23.012a.88.88 0 00-1.243 0L5.44 28.29a.88.88 0 001.244 1.243l5.276-5.276a.88.88 0 000-1.244zM7.716 22.284a.88.88 0 00-1.244 0L.258 28.5A.88.88 0 001.5 29.742l6.215-6.214a.88.88 0 000-1.244z"/></g><path fill="#0F1138" d="M47.86 16.352h-4.5V21h-2.344V9.625h7.406v1.898h-5.063v2.938h4.5v1.89zM52.016 21H49.75v-8.453h2.266V21zm-2.399-10.64c0-.34.112-.618.336-.837.23-.218.54-.328.93-.328.385 0 .692.11.922.328.229.22.343.498.343.836 0 .344-.117.625-.351.844-.23.219-.534.328-.914.328s-.688-.11-.922-.328c-.23-.219-.344-.5-.344-.844zM55.96 12.547l.071.976c.604-.755 1.414-1.132 2.43-1.132.896 0 1.562.263 2 .789.437.526.661 1.312.672 2.36V21h-2.258v-5.406c0-.48-.104-.826-.313-1.04-.208-.218-.554-.327-1.039-.327-.635 0-1.112.27-1.43.812V21h-2.257v-8.453h2.125zM62.5 16.71c0-1.317.294-2.366.883-3.148.594-.78 1.404-1.171 2.43-1.171.822 0 1.502.307 2.039.921V9h2.265v12h-2.039l-.11-.898c-.562.703-1.286 1.054-2.171 1.054-.995 0-1.794-.39-2.399-1.172-.599-.786-.898-1.877-.898-3.273zm2.258.165c0 .792.138 1.398.414 1.82.276.422.677.633 1.203.633.698 0 1.19-.294 1.477-.883V15.11c-.282-.588-.769-.882-1.461-.882-1.089 0-1.633.882-1.633 2.648zM75.938 14.75l2.367-5.125h2.562l-3.734 7.25V21H74.75v-4.125l-3.734-7.25h2.57l2.352 5.125zM80.89 16.695c0-.838.162-1.586.485-2.242a3.554 3.554 0 011.39-1.523c.61-.36 1.316-.54 2.118-.54 1.14 0 2.07.35 2.789 1.047.724.698 1.127 1.646 1.21 2.844l.016.578c0 1.297-.361 2.339-1.085 3.125-.725.782-1.696 1.172-2.915 1.172-1.218 0-2.192-.39-2.921-1.172-.724-.78-1.086-1.843-1.086-3.187v-.102zm2.258.164c0 .802.151 1.417.454 1.844.302.422.734.633 1.296.633.547 0 .974-.208 1.282-.625.307-.422.46-1.094.46-2.016 0-.786-.153-1.396-.46-1.828-.308-.432-.74-.648-1.297-.648-.552 0-.98.216-1.281.648-.303.427-.454 1.091-.454 1.992zM95.352 20.14c-.558.678-1.329 1.016-2.313 1.016-.906 0-1.599-.26-2.078-.781-.474-.52-.716-1.284-.727-2.29v-5.538h2.258v5.46c0 .881.401 1.321 1.203 1.321.766 0 1.292-.265 1.578-.797v-5.984h2.266V21h-2.125l-.062-.86zM103.992 14.664a6.122 6.122 0 00-.812-.062c-.854 0-1.414.289-1.68.867V21h-2.258v-8.453h2.133l.063 1.008c.453-.776 1.08-1.164 1.882-1.164.25 0 .485.034.703.101l-.031 2.172z"/><path fill="#1A75E8" d="M110.602 9.625h2.343V17.5c0 .724-.161 1.365-.484 1.922-.318.552-.768.979-1.352 1.281-.583.302-1.242.453-1.976.453-1.203 0-2.141-.304-2.813-.914-.672-.614-1.008-1.482-1.008-2.601h2.36c0 .557.117.968.351 1.234.235.266.605.398 1.11.398.448 0 .805-.153 1.07-.46.266-.308.399-.745.399-1.313V9.625zM114.453 16.695c0-.838.162-1.586.485-2.242a3.548 3.548 0 011.39-1.523c.61-.36 1.315-.54 2.117-.54 1.141 0 2.071.35 2.789 1.047.724.698 1.128 1.646 1.211 2.844l.016.578c0 1.297-.362 2.339-1.086 3.125-.724.782-1.695 1.172-2.914 1.172s-2.193-.39-2.922-1.172c-.724-.78-1.086-1.843-1.086-3.187v-.102zm2.258.164c0 .802.151 1.417.453 1.844.302.422.734.633 1.297.633.547 0 .974-.208 1.281-.625.307-.422.461-1.094.461-2.016 0-.786-.154-1.396-.461-1.828-.307-.432-.739-.648-1.297-.648-.552 0-.979.216-1.281.648-.302.427-.453 1.091-.453 1.992zM131.469 16.852c0 1.354-.289 2.411-.867 3.171-.579.756-1.386 1.133-2.422 1.133-.917 0-1.649-.351-2.196-1.054l-.101.898h-2.031V9h2.257v4.305c.521-.61 1.206-.914 2.055-.914 1.031 0 1.839.38 2.422 1.14.588.755.883 1.82.883 3.196v.125zm-2.258-.165c0-.854-.135-1.476-.406-1.867-.271-.396-.675-.593-1.211-.593-.719 0-1.214.294-1.485.882v3.336c.276.594.776.89 1.5.89.73 0 1.209-.358 1.438-1.077.109-.344.164-.867.164-1.57z"/><defs><clipPath id="gclip0"><path fill="#fff" d="M0 0h30v30H0z"/></clipPath></defs></svg><svg xmlns="http://www.w3.org/2000/svg" id="mail" fill="none" viewBox="0 0 15 15"><path fill="#fff" d="M11.875.625h-8.75A3.129 3.129 0 000 3.75v7.5a3.129 3.129 0 003.125 3.125h8.75A3.129 3.129 0 0015 11.25v-7.5A3.129 3.129 0 0011.875.625zm-8.75 1.25h8.75a1.875 1.875 0 011.738 1.18L8.826 7.84a1.88 1.88 0 01-2.652 0L1.387 3.054a1.875 1.875 0 011.738-1.179zm8.75 11.25h-8.75A1.875 1.875 0 011.25 11.25V4.687l4.04 4.038a3.13 3.13 0 004.42 0l4.04-4.037v6.562a1.875 1.875 0 01-1.875 1.875z"/></svg><svg xmlns="http://www.w3.org/2000/svg" id="school_1" fill="none" viewBox="0 0 24 24"><g clip-path="url(#iclip0)"><path fill="#111238" d="M19 6h-4.679A3.95 3.95 0 0013 5.388V5l3.53-1.652a1 1 0 000-1.7l-3.2-1.5A1.637 1.637 0 0011 1.636v3.752c-.474.12-.922.328-1.32.612H5a5.006 5.006 0 00-5 5v10a3 3 0 003 3h18a3 3 0 003-3V11a5.006 5.006 0 00-5-5zm2.816 4h-2.159a3.017 3.017 0 01-2.121-.879L16.414 8H19a3 3 0 012.816 2zM5 8h2.586L6.464 9.121A3.017 3.017 0 014.343 10H2.184A3 3 0 015 8zm8 14h-2v-3a1 1 0 012 0v3zm8 0h-6v-3a3 3 0 00-6 0v3H3a1 1 0 01-1-1v-9h2.343a4.968 4.968 0 003.535-1.465l2.708-2.707a2 2 0 012.828 0l2.708 2.707A4.967 4.967 0 0019.657 12H22v9a1 1 0 01-1 1zM7 15a1 1 0 01-1 1H5a1 1 0 010-2h1a1 1 0 011 1zm0 4a1 1 0 01-1 1H5a1 1 0 010-2h1a1 1 0 011 1zm13-4a1 1 0 01-1 1h-1a1 1 0 010-2h1a1 1 0 011 1zm0 4a1 1 0 01-1 1h-1a1 1 0 010-2h1a1 1 0 011 1zm-6-7a2 2 0 11-4 0 2 2 0 014 0z"/></g><defs><clipPath id="iclip0"><path fill="#fff" d="M0 0h24v24H0z"/></clipPath></defs></svg><svg xmlns="http://www.w3.org/2000/svg" id="search" fill="none" viewBox="0 0 15 15"><path fill="#fff" d="M14.825 13.942l-3.728-3.728a6.255 6.255 0 10-.883.883l3.728 3.728a.624.624 0 00.883-.883zm-8.56-2.681a4.996 4.996 0 114.996-4.996 5.002 5.002 0 01-4.996 4.996z"/></svg></svg>