<svg id="Layer_1" enable-background="new 0 0 512 512" height="512" viewBox="0 0 512 512" width="512" xmlns="http://www.w3.org/2000/svg"><g><g><g><g id="XMLID_3557_"><g id="XMLID_3558_"><g id="XMLID_3559_"><g id="XMLID_3560_"><g id="XMLID_3561_"><g id="XMLID_3577_"><g id="XMLID_3585_"><g id="XMLID_3586_"><g id="XMLID_3587_"><g id="XMLID_3588_"><g id="XMLID_3589_"><g id="XMLID_3590_"><g id="XMLID_3591_"><g id="XMLID_3667_"><g id="XMLID_3668_"><circle cx="256" cy="256" fill="#4f4359" r="256"/></g></g></g></g></g></g></g></g></g></g></g></g></g></g></g></g></g><path d="m512 256c0-16.954-1.665-33.517-4.809-49.549l-63.081-62.788-25.22 21.114-89.828-89.919-184.545 118.958-51.035-51.467 40.512 161.99c-8.827 25.847-44.863 100.908-44.863 100.908l97.132 97.135c22.171 6.263 45.562 9.618 69.737 9.618 141.385 0 256-114.615 256-256z" fill="#372a44"/><g><g><path d="m151.589 213.597s-38.944-21.808-54.308-64.933c-1.671-4.69-5.128-8.529-9.678-10.551-10.913-4.85-23.105 3.517-22.504 15.444 1.794 35.621 12.379 70.244 30.811 100.778l29.108 48.219z" fill="#efe8e6"/><path d="m360.411 213.597s38.944-21.808 54.308-64.933c1.671-4.69 5.128-8.529 9.678-10.551 10.913-4.85 23.105 3.517 22.504 15.444-1.794 35.621-12.379 70.244-30.811 100.778l-29.108 48.219z" fill="#e0d4d1"/></g><path d="m429.611 359.108c-22.603-43.953-39.519-91.714-50.179-141.675l-16.237-76.098c-6.838-32.049-23.533-59.864-46.774-77.929-36.721-28.543-84.121-28.543-120.842 0-23.241 18.065-39.936 45.88-46.774 77.929l-16.237 76.098c-10.66 49.961-27.576 97.722-50.179 141.674-14.822 28.823 9.456 63.64 35.943 51.546l43.53-19.876c9.011-4.114 19.137-2.754 27.154 3.648l39.78 31.767c16.46 13.145 37.949 13.144 54.409 0l39.779-31.767c8.017-6.402 18.143-7.762 27.154-3.648l43.53 19.876c26.487 12.095 50.765-22.722 35.943-51.545z" fill="#fff"/><path d="m393.67 410.65-43.53-19.87c-9.01-4.12-19.14-2.76-27.16 3.65l-39.78 31.76c-8.22 6.57-17.71 9.86-27.2 9.86v-394.05c21.03 0 42.06 7.14 60.42 21.41 23.24 18.06 39.94 45.88 46.78 77.93l16.23 76.09c10.66 49.96 27.58 97.73 50.18 141.68 14.82 28.82-9.45 63.64-35.94 51.54z" fill="#efe8e6"/><g><circle cx="198.55" cy="172.355" fill="#7f6866" r="21.645"/><circle cx="302.872" cy="172.355" fill="#634c4c" r="32.222"/></g><g><g><path d="m179.297 242.432-2.429-.643c36.572 61.898 121.691 61.898 158.263 0l-2.429.643c-25.18 6.668-51.238 14.357-76.703 14.357-25.464-.001-51.522-7.689-76.702-14.357z" fill="#7f6866"/><path d="m335.129 241.788c-18.283 30.949-48.706 46.423-79.129 46.423v-31.423c25.759 0 51.518-7.691 76.706-14.357z" fill="#634c4c"/></g><path d="m290.54 252.92v47.08c0 19.08-15.46 34.54-34.54 34.54s-34.54-15.46-34.54-34.54v-47.08c11.54 2.32 23.1 3.87 34.54 3.87s23-1.55 34.54-3.87z" fill="#ff6643"/><path d="m290.54 252.92v47.08c0 19.08-15.46 34.54-34.54 34.54v-77.75c11.44 0 23-1.55 34.54-3.87z" fill="#ff3b3b"/></g></g></g></svg>