<svg xmlns="http://www.w3.org/2000/svg" xmlns:xlink="http://www.w3.org/1999/xlink" id="Capa_1" x="0" y="0" version="1.1" viewBox="0 0 512.002 512.002" xml:space="preserve" style="enable-background:new 0 0 512.002 512.002"><path style="fill:#dbf4ff" d="M256.002,107.5l30,327c14.999,0,15.001,15,30,15v-272C316.002,134.363,289.139,107.5,256.002,107.5z"/><path style="fill:#fff" d="M256.002,107.5c-33.137,0-60,26.863-60,60v282c15.001,0,14.999-15,30-15s14.999,15,30,15	c14.999,0,15.001-15,30-15v-257C286.002,134.363,272.571,107.5,256.002,107.5z"/><path style="fill:#dbf4ff" d="M106.002,52.5l30,382c14.999,0,15.001,15,30,15v-327C166.002,79.363,139.139,52.5,106.002,52.5z"/><path style="fill:#fff" d="M106.002,52.5c-33.137,0-60,26.863-60,60v337c15.001,0,14.999-15,30-15s14.999,15,30,15	c14.999,0,15.001-15,30-15v-312C136.002,79.363,122.571,52.5,106.002,52.5z"/><polygon style="fill:#353535" points="136.002 7.5 106.002 7.5 96.002 32.869 106.002 58.238 131.38 58.337"/><polygon style="fill:#4f4f4f" points="76.002 7.5 80.605 58.138 106.002 58.238 106.002 7.5"/><path style="fill:#dbf4ff" d="M406.002,52.5l30,382c14.999,0,15.001,15,30,15v-327C466.002,79.363,439.139,52.5,406.002,52.5z"/><path style="fill:#fff" d="M406.002,52.5c-33.137,0-60,26.863-60,60v337c15.001,0,14.999-15,30-15s14.999,15,30,15	c14.999,0,15.001-15,30-15v-312C436.002,79.363,422.571,52.5,406.002,52.5z"/><path d="M318.374,497.385l-24.872-8.29v-43.918c0.673,0.615,1.388,1.318,2.197,2.127c4.092,4.092,9.697,9.696,20.303,9.696	c4.142,0,7.5-3.357,7.5-7.5v-272c0-22.537-6.739-41.965-19.49-56.184C291.685,107.57,274.635,100,256.002,100	c-37.22,0-67.5,30.28-67.5,67.5c0,4.143,3.358,7.5,7.5,7.5s7.5-3.357,7.5-7.5c0-28.948,23.551-52.5,52.5-52.5	c30.911,0,52.5,25.701,52.5,62.5v261.327c-0.672-0.614-1.389-1.323-2.197-2.131c-4.092-4.092-9.697-9.696-20.303-9.696	c-10.606,0-16.21,5.604-20.303,9.696c-3.678,3.678-5.481,5.304-9.697,5.304c-4.216,0-6.02-1.626-9.696-5.303	c-4.092-4.092-9.694-9.695-20.298-9.697c-0.062,0.002-0.069,0.001-0.103,0.003c-10.543,0.035-16.127,5.614-20.207,9.694	c-0.807,0.807-1.524,1.516-2.196,2.13V197.5c0-4.143-3.358-7.5-7.5-7.5s-7.5,3.357-7.5,7.5v252c0,4.143,3.358,7.5,7.5,7.5	c10.607,0,16.211-5.604,20.304-9.697c0.809-0.809,1.524-1.513,2.198-2.128l-0.001,43.92l-24.872,8.29	c-3.93,1.31-6.053,5.558-4.744,9.487c1.048,3.143,3.974,5.13,7.114,5.13c0.786,0,1.586-0.125,2.373-0.387l30-10	c3.062-1.021,5.128-3.887,5.128-7.115c0-0.435,0-32.203,0.001-49.323c0.673,0.614,1.387,1.318,2.195,2.126	c4.092,4.093,9.696,9.697,20.304,9.697c10.606,0,16.21-5.604,20.303-9.696c0.809-0.809,1.524-1.512,2.197-2.127V494.5	c0,3.229,2.066,6.095,5.128,7.115l30,10c0.787,0.262,1.586,0.387,2.373,0.387c3.14,0,6.066-1.987,7.114-5.13	C324.427,502.942,322.303,498.694,318.374,497.385z"/><path d="M248.502,175.418v-15c0-4.143-3.358-7.5-7.5-7.5s-7.5,3.357-7.5,7.5v15c0,4.143,3.358,7.5,7.5,7.5	S248.502,179.561,248.502,175.418z"/><path d="M278.502,175.418v-15c0-4.143-3.358-7.5-7.5-7.5s-7.5,3.357-7.5,7.5v15c0,4.143,3.358,7.5,7.5,7.5	S278.502,179.561,278.502,175.418z"/><path d="M168.374,497.385l-24.872-8.29v-43.918c0.673,0.615,1.388,1.318,2.197,2.127c4.092,4.092,9.697,9.696,20.303,9.696	c4.142,0,7.5-3.357,7.5-7.5v-327c0-22.922-7.275-42.889-20.139-56.861h12.639c4.142,0,7.5-3.357,7.5-7.5s-3.358-7.5-7.5-7.5h-26.391	l3.86-42.46c0.191-2.099-0.51-4.181-1.931-5.736S138.109,0,136.002,0h-60c-2.107,0-4.117,0.887-5.538,2.442	s-2.122,3.638-1.931,5.736l3.86,42.46H46.002c-4.142,0-7.5,3.357-7.5,7.5s3.358,7.5,7.5,7.5h11.483	C45.556,78.033,38.502,94.784,38.502,112.5v337c0,4.143,3.358,7.5,7.5,7.5c10.607,0,16.211-5.604,20.303-9.697	c0.809-0.809,1.525-1.513,2.198-2.128l-0.001,43.92l-24.872,8.29c-3.93,1.31-6.053,5.558-4.744,9.487	c1.048,3.143,3.974,5.13,7.114,5.13c0.786,0,1.586-0.125,2.373-0.387l30-10c3.062-1.021,5.128-3.887,5.128-7.115	c0-0.435,0-32.203,0.001-49.323c0.673,0.615,1.388,1.318,2.196,2.126c4.092,4.093,9.696,9.697,20.303,9.697	c10.606,0,16.211-5.604,20.303-9.696c0.809-0.809,1.524-1.512,2.197-2.127V494.5c0,3.229,2.066,6.095,5.128,7.115l30,10	c0.787,0.262,1.586,0.387,2.373,0.387c3.14,0,6.066-1.987,7.114-5.13C174.427,502.942,172.303,498.694,168.374,497.385z M84.215,15	h43.574l-3.24,35.639H87.455L84.215,15z M115.699,436.696c-3.678,3.678-5.481,5.304-9.697,5.304c-4.216,0-6.02-1.626-9.697-5.303	c-4.091-4.092-9.694-9.695-20.298-9.697c-0.062,0.002-0.069,0.001-0.103,0.003c-10.543,0.035-16.127,5.614-20.206,9.694	c-0.808,0.807-1.525,1.516-2.197,2.13V112.5c0-19.752,11.269-37.968,28.84-46.861h46.826C147.558,75.337,158.5,96.477,158.5,122.5	v316.327c-0.672-0.614-1.389-1.323-2.197-2.131C152.211,432.604,146.606,427,136,427C125.396,427,119.791,432.604,115.699,436.696z"/><path d="M91.002,97.918c-4.142,0-7.5,3.357-7.5,7.5v15c0,4.143,3.358,7.5,7.5,7.5s7.5-3.357,7.5-7.5v-15	C98.502,101.275,95.144,97.918,91.002,97.918z"/><path d="M121.002,97.918c-4.142,0-7.5,3.357-7.5,7.5v15c0,4.143,3.358,7.5,7.5,7.5s7.5-3.357,7.5-7.5v-15	C128.502,101.275,125.144,97.918,121.002,97.918z"/><path d="M468.374,497.385l-24.872-8.29v-43.918c0.673,0.615,1.388,1.318,2.197,2.127c4.092,4.092,9.697,9.696,20.303,9.696	c4.142,0,7.5-3.357,7.5-7.5v-327c0-22.537-6.739-41.965-19.49-56.184C441.685,52.57,424.635,45,406.002,45	c-37.22,0-67.5,30.28-67.5,67.5c0,4.143,3.358,7.5,7.5,7.5s7.5-3.357,7.5-7.5c0-28.948,23.551-52.5,52.5-52.5	c30.911,0,52.5,25.701,52.5,62.5v316.327c-0.672-0.614-1.389-1.323-2.197-2.131c-4.092-4.092-9.697-9.696-20.303-9.696	c-10.606,0-16.211,5.604-20.303,9.696c-3.678,3.678-5.481,5.304-9.697,5.304s-6.02-1.626-9.697-5.303	c-4.091-4.092-9.694-9.695-20.298-9.697c-0.062,0.002-0.069,0.001-0.103,0.003c-10.543,0.035-16.127,5.614-20.206,9.694	c-0.808,0.807-1.525,1.516-2.197,2.13V142.5c0-4.143-3.358-7.5-7.5-7.5s-7.5,3.357-7.5,7.5v307c0,4.143,3.358,7.5,7.5,7.5	c10.607,0,16.211-5.604,20.303-9.697c0.809-0.809,1.525-1.513,2.198-2.128l-0.001,43.92l-24.872,8.29	c-3.93,1.31-6.053,5.558-4.744,9.487c1.048,3.143,3.974,5.13,7.114,5.13c0.786,0,1.586-0.125,2.373-0.387l30-10	c3.062-1.021,5.128-3.887,5.128-7.115c0-0.435,0-32.203,0.001-49.323c0.673,0.615,1.388,1.318,2.196,2.126	C389.789,451.396,395.393,457,406,457c10.606,0,16.211-5.604,20.303-9.696c0.809-0.809,1.524-1.512,2.197-2.127V494.5	c0,3.229,2.066,6.095,5.128,7.115l30,10c0.787,0.262,1.586,0.387,2.373,0.387c3.14,0,6.066-1.987,7.114-5.13	C474.427,502.942,472.303,498.694,468.374,497.385z"/><path d="M398.502,120.418v-15c0-4.143-3.358-7.5-7.5-7.5s-7.5,3.357-7.5,7.5v15c0,4.143,3.358,7.5,7.5,7.5	S398.502,124.561,398.502,120.418z"/><path d="M428.502,120.418v-15c0-4.143-3.358-7.5-7.5-7.5s-7.5,3.357-7.5,7.5v15c0,4.143,3.358,7.5,7.5,7.5	S428.502,124.561,428.502,120.418z"/></svg>