<svg xmlns="http://www.w3.org/2000/svg"><symbol id="logo" viewBox="0 0 512 512" style="enable-background:new 0 0 512 512"><g><path style="fill:#fff" d="M502.939,28.748c0-10.872-8.814-19.686-19.686-19.686H28.748c-10.872,0-19.686,8.814-19.686,19.686	v455.637c0,10.872,8.814,19.686,19.686,19.686h454.504c10.872,0,19.686-8.814,19.686-19.686V28.748z"/><path style="opacity:.1;enable-background:new" d="M65.7,483.535V27.898c0-10.872,8.814-19.686,19.686-19.686H28.748	c-10.872,0-19.686,8.814-19.686,19.686v455.637c0,10.872,8.814,19.686,19.686,19.686h56.637	C74.514,503.221,65.7,494.407,65.7,483.535z"/><path d="M310.875,321.48l-0.196-0.253c-4.959-5.951-12.715-9.505-20.744-9.505 c-5.485,0-10.769,1.674-14.88,4.712l-0.137,0.105c-15.972,12.776-34.96,19.254-56.44,19.254c-23.32,0-45.754-8.979-63.097-25.214 c-16.213-15.853-25.511-38.019-25.511-60.817c0-22.693,8.822-43.722,25.512-60.816c17.406-16.259,39.809-25.215,63.096-25.215 c21.528,0,41.031,6.648,56.477,19.285c4.165,3.26,9.533,5.054,15.115,5.054c8.01,0,15.736-3.679,20.666-9.841l0.139-0.184 c8.041-11.168,6.083-26.796-4.458-35.579l-0.119-0.095c-24.954-19.41-55.323-29.669-87.844-29.669 c-76.604,0.383-139.236,61.857-139.615,137.083c0.379,75.563,63.021,137.038,139.638,137.038c32.498,0,62.867-10.259,87.852-29.693 C316.941,348.732,318.98,332.738,310.875,321.48z"/><path d="M388.91,234.157v5.392h11.554c11.554,0,21.182,9.243,21.182,21.182 c0,11.554-9.628,21.182-21.182,21.182H388.91v135.951c0,11.554-9.243,21.182-21.182,21.182c-11.939,0-21.182-9.628-21.182-21.182 V281.914h-10.013c-11.939,0-21.567-9.628-21.567-21.182c0-11.939,9.628-21.182,21.567-21.182h10.013v-5.392 c0-14.25,1.541-26.573,7.318-37.742c5.392-11.554,16.176-20.412,27.728-23.878c7.703-2.311,15.02-3.081,23.108-3.081 c11.554,0,21.182,9.628,21.182,21.182c0,11.939-9.628,21.567-21.182,21.567c-5.007,0-8.473,0.385-10.013,1.155 c-1.541,0.385-1.926,0.77-2.311,1.155C391.992,214.517,388.91,219.909,388.91,234.157z"/><path style="fill:#fff" d="M417.517,512h65.734c15.54,0,28.182-12.643,28.182-28.182V28.182C511.434,12.643,498.792,0,483.252,0H116.178	c-4.692,0-8.496,3.804-8.496,8.496s3.804,8.496,8.496,8.496h367.073c6.171,0,11.19,5.02,11.19,11.19v455.637	c0,6.17-5.02,11.19-11.19,11.19h-65.734c-4.692,0-8.496,3.804-8.496,8.496S412.825,512,417.517,512z"/><path style="fill:#fff" d="M82.196,0H28.748C13.209,0,0.567,12.643,0.567,28.182v455.637C0.567,499.357,13.209,512,28.748,512h354.787	c4.692,0,8.496-3.804,8.496-8.496s-3.804-8.496-8.496-8.496H28.748c-6.17,0-11.19-5.02-11.19-11.19V28.182	c0-6.171,5.02-11.19,11.19-11.19h53.448c4.692,0,8.496-3.804,8.496-8.496S86.888,0,82.196,0z"/><path style="fill:#2f2f2f" d="M89.845,196.048c-4.391-1.649-9.29,0.573-10.94,4.966c-5.971,15.895-9.042,32.577-9.128,49.665	c0.403,80.224,66.856,145.491,148.133,145.491c34.406,0,66.588-10.887,93.125-31.528c14.121-11.179,16.887-32.387,6.167-47.276	c-0.06-0.084-0.121-0.167-0.186-0.248l-0.196-0.253c-0.059-0.076-0.12-0.152-0.182-0.227c-6.554-7.866-16.749-12.561-27.271-12.561	c-7.289,0-14.368,2.264-19.929,6.375c-0.045,0.033-0.089,0.067-0.134,0.101l-0.137,0.105c-0.042,0.032-0.083,0.065-0.123,0.096	c-14.427,11.54-31.631,17.392-51.133,17.392c-21.125,0-41.443-8.116-57.224-22.858c-14.547-14.26-22.888-34.184-22.888-54.679	c0-20.367,7.937-39.291,22.96-54.742c15.806-14.701,36.095-22.794,57.154-22.794c19.543,0,37.213,6.005,51.098,17.365	c0.048,0.038,0.095,0.077,0.143,0.114c5.651,4.424,12.879,6.861,20.352,6.861c10.567,0,20.772-4.871,27.3-13.03	c0.046-0.058,0.092-0.116,0.136-0.174l0.139-0.184c0.043-0.055,0.084-0.112,0.125-0.169c10.634-14.77,8.037-35.445-5.914-47.069	c-0.037-0.032-0.075-0.062-0.113-0.093l-0.119-0.095c-0.036-0.029-0.073-0.059-0.11-0.087c-26.46-20.581-58.64-31.459-93.102-31.459	c-48.348,0.241-93.801,23.884-121.585,63.243c-2.706,3.833-1.793,9.133,2.041,11.839c3.834,2.707,9.133,1.793,11.839-2.041	c24.626-34.883,64.921-55.837,107.748-56.052c30.583,0,59.135,9.626,82.574,27.837l0,0c7.063,5.929,8.378,16.425,3.01,23.967	c-3.336,4.119-8.55,6.573-13.968,6.573c-3.666,0-7.15-1.136-9.819-3.202c-16.944-13.829-38.303-21.137-61.774-21.137	c-25.444,0-49.911,9.768-68.896,27.502c-0.095,0.089-0.188,0.18-0.28,0.273c-18.271,18.714-27.929,41.796-27.929,66.751	c0,25.069,10.23,49.45,28.066,66.891c0.044,0.043,0.089,0.086,0.134,0.128c18.95,17.739,43.42,27.508,68.904,27.508	c23.429,0,44.183-7.088,61.685-21.066l0.002-0.001c2.652-1.938,6.119-3.004,9.771-3.004c5.492,0,10.762,2.369,14.131,6.343	c5.393,7.618,4.059,18.314-2.951,23.863c-23.469,18.254-52.045,27.903-82.637,27.903c-71.955,0-130.785-57.683-131.142-128.5	c0.075-14.985,2.782-29.685,8.042-43.691C96.462,202.597,94.238,197.699,89.845,196.048z"/><path style="fill:#2f2f2f" d="M396.839,291.259h3.058c16.365,0,29.678-13.313,29.678-29.678c0-16.365-13.313-29.678-29.678-29.678h-3.003	c0.187-5.05,0.805-8.251,1.289-10.041c0.885-0.134,2.682-0.313,5.95-0.313c16.365,0,29.678-13.486,29.678-30.063	c0-16.365-13.313-29.678-29.678-29.678c-9.739,0-17.619,1.061-25.549,3.439c-14.304,4.292-26.596,14.85-32.912,28.264	c-5.401,10.507-7.89,22.129-8.164,38.39h-1.543c-16.857,0-30.063,13.036-30.063,29.678c0,16.365,13.486,29.678,30.063,29.678h1.518	v127.455c0,16.365,13.313,29.678,29.678,29.678c16.364,0,29.678-13.313,29.678-29.678V291.259H396.839z M379.848,282.763v135.951	c0,7.114-5.572,12.687-12.687,12.687c-7.115,0-12.687-5.573-12.687-12.687V282.763c0-4.692-3.804-8.496-8.496-8.496h-10.013	c-7.208,0-13.072-5.691-13.072-12.687c0-7.114,5.742-12.687,13.072-12.687h10.013c4.692,0,8.496-3.804,8.496-8.496v-5.392	c0-15.09,1.904-25.21,6.368-33.84c0.053-0.102,0.104-0.206,0.153-0.31c4.215-9.031,12.825-16.439,22.471-19.333	c6.278-1.884,12.652-2.723,20.667-2.723c6.877,0,12.687,5.81,12.687,12.687c0,7.208-5.691,13.072-12.687,13.072	c-7.359,0-10.777,0.768-12.88,1.629c-2.262,0.668-3.926,1.644-5.455,3.175l0.034,0.034c-4.807,4.873-5.984,15.94-5.984,25.609v5.392	c0,4.692,3.804,8.496,8.496,8.496h11.554c7.114,0,12.687,5.572,12.687,12.687c0,6.877-5.81,12.687-12.687,12.687h-11.554	C383.652,274.268,379.848,278.072,379.848,282.763z M396.691,222.308c-1.169,0.838-2.798,1.554-4.881,1.554	c1.723,0,3.436-0.568,4.859-1.546C396.676,222.312,396.684,222.31,396.691,222.308z"/></g></symbol><symbol id="film" enable-background="new 0 0 512 512" viewBox="0 0 512 512"><g><path fill="#ffe14d" d="m312.439 180h-264.879c-6.354 0-12.02-4.004-14.14-9.995-2.27-6.41-3.42-13.141-3.42-20.005 0-21.867 12.028-41.635 30.537-52.081-.357-2.624-.537-5.266-.537-7.919 0-33.084 26.916-60 60-60 2.652 0 5.295.18 7.919.537 10.447-18.508 30.214-30.537 52.081-30.537s41.634 12.029 52.081 30.537c2.624-.357 5.267-.537 7.919-.537 33.084 0 60 26.916 60 60 0 2.653-.18 5.295-.537 7.919 18.509 10.447 30.537 30.214 30.537 52.081 0 6.863-1.15 13.594-3.42 20.005-2.121 5.991-7.786 9.995-14.141 9.995z"/><path fill="#fb3" d="m312.439 180c6.354 0 12.02-4.004 14.141-9.995 2.27-6.411 3.42-13.142 3.42-20.005 0-21.867-12.028-41.634-30.537-52.081.357-2.624.537-5.266.537-7.919 0-33.084-26.916-60-60-60-2.652 0-5.295.18-7.919.537-10.447-18.508-30.214-30.537-52.081-30.537v180z"/><path fill="#ffe14d" d="m512 392c0-33.08-26.92-60-60-60-10.92 0-21.17 2.93-30 8.05-17.92 10.4-30 29.79-30 51.95-33.08 0-60 26.92-60 60s26.92 60 60 60c10.57 0 20.9-2.85 30-8.18 9.1 5.33 19.43 8.18 30 8.18 33.08 0 60-26.92 60-60 0-10.57-2.85-20.9-8.18-30 5.33-9.1 8.18-19.43 8.18-30z"/><path fill="#fb3" d="m201.213 128.787c-3.839 0-7.677-1.464-10.606-4.393-2.834-2.834-6.601-4.394-10.607-4.394s-7.773 1.56-10.607 4.394c-5.858 5.858-15.355 5.857-21.213-.001s-5.857-15.355 0-21.213c8.5-8.499 19.8-13.18 31.82-13.18s23.32 4.681 31.82 13.18c5.858 5.858 5.858 15.355 0 21.213-2.928 2.929-6.768 4.394-10.607 4.394z"/><path fill="#e68a2e" d="m190.607 124.394c2.929 2.929 6.768 4.393 10.606 4.393s7.678-1.465 10.607-4.394c5.858-5.858 5.857-15.355 0-21.213-8.5-8.499-19.8-13.18-31.82-13.18v30c4.006 0 7.773 1.56 10.607 4.394z"/><path fill="#cc2929" d="m329.94 166.35-30 332c-.7 7.73-7.18 13.65-14.94 13.65h-53.18l-7.186-187 23.536-175h66.83c4.21 0 8.23 1.77 11.07 4.88 2.85 3.11 4.25 7.27 3.87 11.47z"/><path fill="#dfe7f4" d="m248.17 150-16.35 362h-51.82v-362z"/><path fill="#e64545" d="m128.18 512h-53.18c-7.76 0-14.24-5.92-14.94-13.65l-30-332c-.38-4.2 1.02-8.36 3.87-11.47 2.84-3.11 6.86-4.88 11.07-4.88h66.82l22.954 175z"/><path fill="#f0f7ff" d="m180 150v362h-51.82l-16.36-362z"/><path fill="#cc2929" d="m345 180h-330c-8.284 0-15-6.716-15-15s6.716-15 15-15h330c8.284 0 15 6.716 15 15s-6.716 15-15 15z"/><path fill="#991f1f" d="m180 180h165c8.284 0 15-6.716 15-15s-6.716-15-15-15h-165z"/><path fill="#fb3" d="m503.82 422c5.33 9.1 8.18 19.43 8.18 30 0 33.08-26.92 60-60 60-10.57 0-20.9-2.85-30-8.18v-163.77c8.83-5.12 19.08-8.05 30-8.05 33.08 0 60 26.92 60 60 0 10.57-2.85 20.9-8.18 30z"/></g></symbol><symbol id="play" viewBox="0 0 25 25"><g><path fill="#5671F6" d="M12.5 0C5.59644 0 0 5.59644 0 12.5C0 19.4036 5.59644 25 12.5 25C19.4036 25 25 19.4036 25 12.5C24.9927 5.59953 19.4005 0.00737655 12.5 0ZM17.7642 12.8983C17.6777 13.0719 17.537 13.2126 17.3634 13.2991V13.3036L10.2205 16.875C9.77942 17.0954 9.24318 16.9166 9.02272 16.4754C8.96004 16.35 8.92776 16.2116 8.92855 16.0715V8.9286C8.92834 8.43547 9.32788 8.03557 9.82101 8.03531C9.9597 8.03525 10.0965 8.06748 10.2205 8.12948L17.3634 11.7009C17.8047 11.9209 17.9842 12.4569 17.7642 12.8983Z"/></g></symbol><symbol id="search-mob" fill="none" viewBox="0 0 16 16"><g><path fill="#363636" d="M7.04617 0C3.16102 0 0 3.16102 0 7.04617C0 10.9315 3.16102 14.0923 7.04617 14.0923C10.9315 14.0923 14.0923 10.9315 14.0923 7.04617C14.0923 3.16102 10.9315 0 7.04617 0ZM7.04617 12.7915C3.87821 12.7915 1.30083 10.2142 1.30083 7.0462C1.30083 3.87824 3.87821 1.30083 7.04617 1.30083C10.2141 1.30083 12.7915 3.87821 12.7915 7.04617C12.7915 10.2141 10.2141 12.7915 7.04617 12.7915Z"/><path fill="#363636" d="M15.8097 14.8898L12.0806 11.1608C11.8265 10.9067 11.415 10.9067 11.1609 11.1608C10.9068 11.4147 10.9068 11.8266 11.1609 12.0805L14.89 15.8095C15.017 15.9366 15.1833 16.0001 15.3498 16.0001C15.5161 16.0001 15.6826 15.9366 15.8097 15.8095C16.0638 15.5557 16.0638 15.1437 15.8097 14.8898Z"/></g></symbol></svg>