<?xml version="1.0" encoding="iso-8859-1"?>
<!-- Generator: Adobe Illustrator 19.0.0, SVG Export Plug-In . SVG Version: 6.00 Build 0)  -->
<svg version="1.1" id="Capa_1" xmlns="http://www.w3.org/2000/svg" xmlns:xlink="http://www.w3.org/1999/xlink" x="0px" y="0px"
	 viewBox="0 0 512 512" style="enable-background:new 0 0 512 512;" xml:space="preserve">
<g>
	<g>
		<g>
			<path d="M511.653,288.124c-1.275-8.899-5.941-16.771-13.136-22.161c-22.956-17.202-47.617-26.145-72.184-26.591
				c0.129-3.021,0.198-6.032,0.198-9.008c0-21.003-3.983-41.33-11.828-60.543c1.081-0.958,2.034-2.082,2.813-3.361
				c2.679-4.397,2.868-9.758,0.503-14.339c-3.097-5.999-6.584-11.87-10.365-17.451c-2.741-4.048-7.277-6.465-12.133-6.465h-5.681
				c-23.925-28.993-56.986-48.588-93.754-55.564l-8.697-12.953c-4.321-6.437-11.53-10.278-19.282-10.278
				s-14.961,3.842-19.282,10.278l-8.133,12.112c-38.751,6.119-73.523,26.013-98.592,56.405h-5.684
				c-4.856,0-9.392,2.417-12.132,6.464c-3.781,5.582-7.269,11.453-10.366,17.452c-2.364,4.581-2.176,9.941,0.503,14.339
				c0.78,1.28,1.733,2.404,2.814,3.362c-7.846,19.213-11.829,39.541-11.829,60.542c0,1.526-0.035,3.057-0.06,4.587
				c-26.388-8.125-55.632-5.849-85.166,7.058c-17.006,7.433-24.795,27.316-17.363,44.324c7.431,17.003,27.314,24.792,44.323,17.363
				c18.17-7.942,33.451-8.232,46.522-0.853c-15.569,39.826-43.195,54.227-64.085,59.225c-9.352,2.237-16.693,9.014-19.638,18.127
				c-2.905,8.991-0.958,18.636,5.211,25.8c5.828,6.768,12.678,13.069,20.358,18.727c1.339,0.986,2.897,1.462,4.442,1.461
				c2.302,0,4.574-1.057,6.045-3.052c2.456-3.335,1.745-8.03-1.591-10.487c-6.774-4.989-12.792-10.52-17.887-16.435
				c-2.768-3.214-3.607-7.369-2.305-11.4c1.323-4.094,4.634-7.142,8.856-8.151c19.739-4.722,54.561-19.597,73.689-66.185
				c3.738,1.405,7.705,2.154,11.787,2.154c4.142,0,7.5-3.357,7.5-7.5c0-4.142-3.358-7.5-7.5-7.5c-4.021,0-7.861-1.273-11.104-3.681
				h-0.001l-0.25-0.181c-0.005-0.004-0.01-0.006-0.015-0.01c-18.485-13.594-40.701-14.877-66.038-3.803
				c-9.43,4.117-20.454-0.199-24.573-9.625c-4.121-9.429,0.198-20.452,9.625-24.573c37.53-16.401,74.29-13.478,103.508,8.231
				c7.771,5.775,9.828,16.708,4.683,24.89c-2.205,3.507-1.151,8.137,2.355,10.342c3.507,2.206,8.137,1.149,10.342-2.355
				c9.289-14.768,5.585-34.498-8.433-44.915c-5.903-4.387-12.066-8.098-18.439-11.161c0.121-3.469,0.204-6.951,0.204-10.421
				c0-19.78,3.891-38.895,11.558-56.898h94.295c-12.568,11.047-20.523,27.224-20.523,45.232c0,33.213,27.02,60.233,60.233,60.233
				c33.213,0,60.233-27.021,60.233-60.233c0-18.009-7.955-34.185-20.523-45.232h94.295c7.667,18.002,11.558,37.118,11.558,56.898
				c0,3.234-0.093,6.514-0.257,9.805c-10.239,1.277-20.398,4.042-30.344,8.342c-8.253,3.567-14.624,10.136-17.937,18.494
				c-3.313,8.358-3.173,17.507,0.395,25.761c0.523,1.209,1.121,2.397,1.776,3.528c2.076,3.585,6.665,4.81,10.249,2.731
				c3.584-2.075,4.808-6.664,2.732-10.249c-0.363-0.628-0.696-1.288-0.988-1.963c-1.978-4.576-2.055-9.648-0.219-14.281
				c1.837-4.634,5.368-8.274,9.944-10.253c33.411-14.442,69.863-8.873,102.642,15.688c3.989,2.989,6.575,7.352,7.282,12.286
				c0.707,4.934-0.549,9.848-3.538,13.836c-3.27,4.363-8.269,7.072-13.715,7.433c-4.438,0.28-8.844-1.018-12.408-3.688
				c-21.767-16.307-43.33-20.284-64.117-11.849l-0.187,0.075c-0.36,0.145-0.719,0.292-1.078,0.447
				c-0.024,0.01-0.048,0.02-0.072,0.03c-2.85,1.233-5.975,1.737-9.039,1.465c-4.113-0.369-7.77,2.674-8.139,6.801
				c-0.37,4.125,2.675,7.77,6.801,8.139c0.748,0.067,1.498,0.104,2.248,0.121c-36.058,79.844-121.106,134.528-211.669,134.528
				c-45.903,0-84.279-7.11-114.065-21.133c-3.75-1.764-8.216-0.156-9.98,3.592c-1.764,3.747-0.157,8.216,3.591,9.98
				c31.799,14.971,72.325,22.561,120.455,22.561c100.248,0,194.184-63.07,229.736-153.791c14.865-4.872,30.129-1.243,46.522,11.039
				c5.837,4.374,12.929,6.724,20.18,6.724c0.736,0,1.475-0.024,2.213-0.073c9.819-0.65,18.833-5.535,24.73-13.405
				C510.663,305.888,512.929,297.024,511.653,288.124z M369.656,128.204h-36.261l-24.894-37.075
				C331.621,98.172,352.615,110.889,369.656,128.204z M261.277,68.047c1.553-2.313,4.042-3.64,6.829-3.64
				c2.786,0,5.275,1.326,6.829,3.64l40.392,60.156h-94.442L261.277,68.047z M228.733,89.607l-25.915,38.597h-40.543
				C180.646,109.506,203.5,96.232,228.733,89.607z M311.201,218.697c0,24.941-20.292,45.233-45.233,45.233
				c-24.941,0-45.233-20.292-45.233-45.233s20.292-45.232,45.233-45.232C290.909,173.465,311.201,193.756,311.201,218.697z
				 M127.524,158.465c2.732-5.241,5.79-10.372,9.094-15.261h9.046c0.004,0,0.008,0.001,0.012,0.001c0.006,0,0.012-0.001,0.018-0.001
				h183.693c0.005,0,0.011,0.001,0.016,0.001s0.009-0.001,0.014-0.001h56.825c0.006,0,0.012,0.001,0.018,0.001
				c0.004,0,0.008-0.001,0.012-0.001h9.046c3.304,4.889,6.361,10.019,9.094,15.261H127.524z"/>
			<path d="M265.968,202.429c-4.142,0-7.5,3.357-7.5,7.5v20.138c0,4.143,3.358,7.5,7.5,7.5c4.142,0,7.5-3.357,7.5-7.5v-20.138
				C273.468,205.787,270.11,202.429,265.968,202.429z"/>
			<path d="M265.968,374.206c23.071,0,41.841-18.77,41.841-41.841v-35.051c5.544-3.694,10.631-8.138,15.099-13.265
				c2.721-3.123,2.396-7.86-0.727-10.582c-3.122-2.722-7.86-2.397-10.581,0.727c-11.515,13.214-28.147,20.792-45.631,20.792
				c-17.484,0-34.116-7.578-45.631-20.792c-2.721-3.122-7.459-3.447-10.582-0.727c-3.123,2.722-3.448,7.459-0.727,10.582
				c4.468,5.127,9.555,9.572,15.099,13.265v35.05C224.127,355.436,242.896,374.206,265.968,374.206z M239.127,305.03
				c6.181,2.355,12.678,3.903,19.34,4.569v20.336c0,4.143,3.358,7.5,7.5,7.5c4.142,0,7.5-3.357,7.5-7.5v-20.336
				c6.662-0.666,13.16-2.214,19.341-4.569v27.336c0,14.8-12.041,26.841-26.841,26.841c-14.8,0-26.84-12.041-26.84-26.841V305.03z"/>
		</g>
	</g>
</g>
<g>
</g>
<g>
</g>
<g>
</g>
<g>
</g>
<g>
</g>
<g>
</g>
<g>
</g>
<g>
</g>
<g>
</g>
<g>
</g>
<g>
</g>
<g>
</g>
<g>
</g>
<g>
</g>
<g>
</g>
</svg>
