<svg xmlns="http://www.w3.org/2000/svg" xmlns:xlink="http://www.w3.org/1999/xlink" id="Layer_1" x="0" y="0" version="1.1" viewBox="0 0 347.9 97.5" xml:space="preserve" style="enable-background:new 0 0 347.9 97.5"><style type="text/css">.st0{fill:#006848}.st1{fill:url(#SVGID_1_)}</style><switch><g><g><path d="M247.8,46.3v51.2H279V68.7h31.4c16.4,0,30.4-9.3,35.8-22.4H247.8z" class="st0"/><linearGradient id="SVGID_1_" x1="246.383" x2="347.869" y1="20.212" y2="20.212" gradientUnits="userSpaceOnUse"><stop offset="0" style="stop-color:#02afff"/><stop offset="1" style="stop-color:#1f5bde"/></linearGradient><path d="M246.4,0c0.1,2.6,0.5,5.2,1.1,7.6c0.1,0.5,0.3,1.1,0.4,1.6c0.1,0.2,0.1,0.4,0.2,0.7 c5.6,17.7,22.1,30.5,41.6,30.5h57.6c0.4-2,0.6-4,0.6-6.1c0-10-4.3-19-11.2-25.3c-6.1-5.6-14.2-9-23.2-9H246.4z" class="st1"/><path d="M192.5,10.3l-21.8,47.3h-2.2V0h-31v97.5h26.3c6.9,0,13.2-4,16.1-10.3l21.8-47.3h2.2v57.6h31V0h-26.3 C201.7,0,195.4,4,192.5,10.3" class="st0"/><path d="M48,12.8L61,57.6h2.2l12.9-44.8C78.3,5.2,85.2,0,93.1,0h31v97.5h-31V39.9h-2.2L73.1,97.5H51L33.2,39.9H31 v57.6H0V0h31C38.9,0,45.8,5.2,48,12.8" class="st0"/></g></g></switch></svg>