<?xml version="1.0" encoding="iso-8859-1"?>
<!-- Generator: Adobe Illustrator 16.0.0, SVG Export Plug-In . SVG Version: 6.00 Build 0)  -->
<!DOCTYPE svg PUBLIC "-//W3C//DTD SVG 1.1//EN" "http://www.w3.org/Graphics/SVG/1.1/DTD/svg11.dtd">
<svg version="1.1" id="Capa_1" xmlns="http://www.w3.org/2000/svg" xmlns:xlink="http://www.w3.org/1999/xlink" x="0px" y="0px"
	 width="94.431px" height="94.43px" viewBox="0 0 94.431 94.43" style="enable-background:new 0 0 94.431 94.43;"
	 xml:space="preserve">
<g>
	<g id="Layer_1_13_">
		<g>
			<g>
				<path d="M91.542,0H2.89C1.294,0,0,1.293,0,2.89v88.65c0,1.596,1.294,2.89,2.89,2.89h88.651c1.596,0,2.89-1.294,2.89-2.89V2.89
					C94.431,1.293,93.137,0,91.542,0z M40.401,67.17c3.843,0,7.837-0.78,10.421-2.036l1.363-0.665l2.025,7.768l-0.9,0.451
					c-2.513,1.258-7.59,2.603-14.299,2.603c-16.374,0-26.955-10.822-26.955-27.571c0-16.826,11.688-28.577,28.422-28.577
					c7.626,0,11.824,1.879,12.929,2.457l0.906,0.473l-2.326,7.866L50.671,29.3c-2.711-1.314-6.248-2.037-9.96-2.037
					c-11.939,0-19.067,7.561-19.067,20.224C21.643,59.811,28.656,67.17,40.401,67.17z M82.376,41.452H67.191v9.843H81.22v6.443
					H67.191v16.778h-7.271V34.953h22.455V41.452z"/>
			</g>
		</g>
	</g>
</g>
<g>
</g>
<g>
</g>
<g>
</g>
<g>
</g>
<g>
</g>
<g>
</g>
<g>
</g>
<g>
</g>
<g>
</g>
<g>
</g>
<g>
</g>
<g>
</g>
<g>
</g>
<g>
</g>
<g>
</g>
</svg>
