<?xml version="1.0" encoding="iso-8859-1"?>
<!-- Generator: Adobe Illustrator 19.0.0, SVG Export Plug-In . SVG Version: 6.00 Build 0)  -->
<svg version="1.1" id="Layer_1" xmlns="http://www.w3.org/2000/svg" xmlns:xlink="http://www.w3.org/1999/xlink" x="0px" y="0px"
	 viewBox="0 0 512 512" style="enable-background:new 0 0 512 512;" xml:space="preserve">
<path style="fill:#E4EAF6;" d="M256.26,107.748h56.065c0,0,16.519-16.019,33.038-16.019s78.758,18.354,87.101,33.038
	c8.343,14.684,140.005,264.707,24.028,295.342c-17.688,4.672-91.439-88.102-117.136-88.102H256.26h-0.52h-83.096
	c-25.697,0-99.448,92.774-117.136,88.102c-115.977-30.635,15.685-280.658,24.028-295.342s70.582-33.038,87.101-33.038
	s33.038,16.019,33.038,16.019h56.065"/>
<circle style="fill:#D2FA50;" cx="255.736" cy="147.791" r="16.019"/>
<g>
	<circle style="fill:#707487;" cx="127.587" cy="187.837" r="39.045"/>
	<circle style="fill:#707487;" cx="190.661" cy="267.93" r="39.045"/>
	<circle style="fill:#707487;" cx="319.81" cy="267.93" r="39.045"/>
</g>
<path d="M439.428,120.811c-4.786-8.422-19.872-17.049-44.842-25.642c-19.588-6.741-39.829-11.449-49.223-11.449
	c-15.735,0-30.305,11.008-36.123,16.019h-52.98c-0.087,0-0.173,0.001-0.259,0.004c-0.087-0.002-0.173-0.004-0.26-0.004h-52.98
	c-5.818-5.011-20.388-16.019-36.123-16.019c-9.394,0-29.635,4.707-49.222,11.449c-24.97,8.593-40.056,17.22-44.842,25.642
	c-1.02,1.795-100.419,183.334-64.913,267.801c8.516,20.259,23.927,33.462,45.803,39.24c1.081,0.285,2.198,0.427,3.358,0.427
	c12.048,0,28.733-15.241,57.482-42.494c12.139-11.508,24.691-23.408,35.682-32.291c15.05-12.164,20.86-13.478,22.66-13.478h166.712
	c1.799,0,7.61,1.313,22.659,13.477c10.992,8.884,23.544,20.783,35.682,32.291c28.749,27.256,45.433,42.497,57.482,42.495
	c1.159,0,2.278-0.142,3.358-0.427c21.877-5.779,37.287-18.981,45.803-39.239C539.845,304.152,440.448,122.607,439.428,120.811z
	 M489.574,382.406c-6.52,15.508-17.857,25.271-34.651,29.833c-1.019-0.207-5.273-1.604-16.539-10.973
	c-8.741-7.268-18.904-16.904-29.664-27.105c-32.922-31.211-54.019-50.162-69.362-50.162H172.644
	c-15.344,0-36.441,18.951-69.363,50.162c-10.76,10.201-20.923,19.837-29.664,27.104c-11.266,9.368-15.52,10.765-16.539,10.973
	c-16.794-4.561-28.133-14.325-34.651-29.834c-12.645-30.082-6.555-81.643,17.612-149.108c18.17-50.723,41.628-96.067,46.462-104.573
	c1.461-2.569,10.89-9.724,36.127-18.409c19.238-6.621,37.484-10.576,44.01-10.576c10.801,0,23.494,9.94,27.463,13.759
	c1.495,1.449,3.494,2.26,5.575,2.26h56.065c0.087,0,0.173-0.002,0.26-0.004c0.086,0.002,0.172,0.004,0.259,0.004h56.065
	c2.081,0,4.082-0.811,5.575-2.26c3.947-3.826,16.573-13.759,27.463-13.759c6.526,0,24.772,3.957,44.011,10.576
	c25.237,8.685,34.666,15.839,36.127,18.409c4.834,8.507,28.294,53.855,46.462,104.574
	C496.128,300.763,502.218,352.323,489.574,382.406z M183.656,283.952v-8.009h-8.009c-4.423,0-8.009-3.586-8.009-8.009
	s3.586-8.009,8.009-8.009h8.009v-8.009c0-4.423,3.586-8.009,8.009-8.009c4.424,0,8.009,3.586,8.009,8.009v8.009h8.009
	c4.424,0,8.009,3.586,8.009,8.009s-3.585,8.009-8.009,8.009h-8.009v8.009c0,4.423-3.585,8.009-8.009,8.009
	C187.243,291.961,183.656,288.375,183.656,283.952z M363.853,248.678c2.665,6.088,4.017,12.568,4.017,19.258
	c0,26.496-21.556,48.052-48.052,48.052c-26.496,0-48.052-21.556-48.052-48.052s21.556-48.052,48.052-48.052
	c6.686,0,13.161,1.35,19.244,4.011c4.053,1.773,5.9,6.496,4.127,10.548c-1.773,4.054-6.495,5.901-10.548,4.128
	c-4.047-1.771-8.362-2.668-12.824-2.668c-17.663,0-32.033,14.371-32.033,32.033c0,17.663,14.37,32.033,32.033,32.033
	c17.663,0,32.033-14.371,32.033-32.033c0-4.466-0.899-8.783-2.672-12.834c-1.775-4.052,0.072-8.775,4.125-10.549
	C357.356,242.779,362.079,244.626,363.853,248.678z M235.705,248.678c2.665,6.088,4.017,12.568,4.017,19.258
	c0,26.496-21.556,48.052-48.052,48.052s-48.052-21.556-48.052-48.052s21.556-48.052,48.052-48.052c6.686,0,13.16,1.35,19.244,4.011
	c4.053,1.773,5.9,6.496,4.127,10.548c-1.772,4.054-6.494,5.901-10.548,4.128c-4.047-1.771-8.362-2.668-12.824-2.668
	c-17.663,0-32.033,14.371-32.033,32.033c0,17.663,14.371,32.033,32.033,32.033s32.033-14.371,32.033-32.033
	c0-4.466-0.899-8.783-2.672-12.834c-1.774-4.052,0.072-8.775,4.125-10.549C229.207,242.779,233.931,244.626,235.705,248.678z
	 M335.837,267.937c0,8.832-7.185,16.018-16.019,16.018c-0.001,0-0.003,0-0.004,0s-0.003,0-0.004,0
	c-8.832,0-16.018-7.185-16.018-16.018s7.185-16.018,16.018-16.018c0.001,0,0.003,0,0.004,0s0.003,0,0.004,0
	C328.651,251.92,335.837,259.105,335.837,267.937z M127.595,235.888c-26.496,0-48.052-21.556-48.052-48.052
	s21.556-48.052,48.052-48.052c6.686,0,13.16,1.35,19.244,4.011c4.053,1.773,5.9,6.496,4.127,10.548
	c-1.772,4.052-6.493,5.902-10.548,4.128c-4.047-1.77-8.362-2.668-12.824-2.668c-17.663,0-32.033,14.371-32.033,32.033
	s14.371,32.033,32.033,32.033s32.033-14.371,32.033-32.033c0-4.466-0.899-8.784-2.672-12.834c-1.774-4.052,0.072-8.775,4.125-10.549
	c4.051-1.774,8.775,0.073,10.549,4.125c2.665,6.088,4.017,12.568,4.017,19.258C175.647,214.332,154.092,235.888,127.595,235.888z
	 M143.614,187.836c0,8.832-7.185,16.018-16.018,16.018c-0.002,0-0.002,0-0.004,0c-0.002,0-0.002,0-0.004,0
	c-8.832,0-16.019-7.185-16.019-16.018c0-8.832,7.185-16.018,16.019-16.018c0.001,0,0.002,0,0.004,0c0.001,0,0.002,0,0.004,0
	C136.429,171.819,143.614,179.004,143.614,187.836z M335.833,187.84c0-8.832,7.186-16.019,16.019-16.019s16.019,7.186,16.019,16.019
	c0,8.832-7.186,16.019-16.019,16.019S335.833,196.673,335.833,187.84z M431.944,187.84c0,8.832-7.186,16.019-16.019,16.019
	s-16.019-7.186-16.019-16.019c0-8.832,7.186-16.019,16.019-16.019S431.944,179.007,431.944,187.84z M399.907,219.878
	c0,8.832-7.186,16.019-16.019,16.019s-16.019-7.186-16.019-16.019s7.186-16.019,16.019-16.019S399.907,211.044,399.907,219.878z
	 M367.87,155.803c0-8.832,7.186-16.019,16.019-16.019s16.019,7.186,16.019,16.019c0,8.832-7.186,16.019-16.019,16.019
	S367.87,164.636,367.87,155.803z M279.768,147.794c0-13.248-10.779-24.028-24.028-24.028c-13.249,0-24.028,10.779-24.028,24.028
	c0,13.248,10.779,24.028,24.028,24.028C268.989,171.822,279.768,161.042,279.768,147.794z M255.74,155.803
	c-4.416,0-8.009-3.593-8.009-8.009c0-4.416,3.593-8.009,8.009-8.009c4.416,0,8.009,3.593,8.009,8.009
	C263.749,152.21,260.156,155.803,255.74,155.803z"/>
<g>
</g>
<g>
</g>
<g>
</g>
<g>
</g>
<g>
</g>
<g>
</g>
<g>
</g>
<g>
</g>
<g>
</g>
<g>
</g>
<g>
</g>
<g>
</g>
<g>
</g>
<g>
</g>
<g>
</g>
</svg>
