<svg xmlns="http://www.w3.org/2000/svg" width="17.5" height="20" viewBox="0 0 17.5 20"><metadata><?xpacket begin="﻿" id="W5M0MpCehiHzreSzNTczkc9d"?><x:xmpmeta xmlns:x="adobe:ns:meta/" x:xmptk="Adobe XMP Core 5.6-c142 79.160924, 2017/07/13-01:06:39"><rdf:RDF xmlns:rdf="http://www.w3.org/1999/02/22-rdf-syntax-ns#"><rdf:Description/></rdf:RDF></x:xmpmeta><?xpacket end="w"?></metadata><defs><style>.cls-1{fill:#feb960;fill-rule:evenodd}</style></defs><path id="i" d="M453.016,1440.21a1.2,1.2,0,0,1-.371-0.88v-15a1.2,1.2,0,0,1,.371-0.88,1.189,1.189,0,0,1,.879-0.37h12.5a1.188,1.188,0,0,1,.878.37,1.2,1.2,0,0,1,.372.88v1.25h1.25a1.188,1.188,0,0,1,.878.37,1.2,1.2,0,0,1,.372.88v15a1.2,1.2,0,0,1-.372.88,1.228,1.228,0,0,1-.878.37H456.4a1.228,1.228,0,0,1-.879-0.37,1.2,1.2,0,0,1-.371-0.88v-1.25H453.9A1.228,1.228,0,0,1,453.016,1440.21Zm13.379-15.88H453.9v15h12.5v-15Zm1.25,2.5v12.5a1.2,1.2,0,0,1-.372.88,1.228,1.228,0,0,1-.878.37h-10v1.25h12.5v-15h-1.25Zm-9.375,0h6.25a0.635,0.635,0,0,1,.449.17,0.619,0.619,0,0,1,.176.45,0.588,0.588,0,0,1-.176.45,0.6,0.6,0,0,1-.449.18h-6.25a0.6,0.6,0,0,1-.45-0.18,0.588,0.588,0,0,1-.175-0.45,0.618,0.618,0,0,1,.175-0.45,0.636,0.636,0,0,1,.45-0.17h0Zm-2.95,4.82a0.588,0.588,0,0,1-.175-0.45,0.618,0.618,0,0,1,.175-0.45,0.636,0.636,0,0,1,.45-0.17h8.75a0.635,0.635,0,0,1,.449.17,0.619,0.619,0,0,1,.176.45,0.588,0.588,0,0,1-.176.45,0.6,0.6,0,0,1-.449.18h-8.75A0.6,0.6,0,0,1,455.32,1431.65Zm0,2.5a0.588,0.588,0,0,1-.175-0.45,0.618,0.618,0,0,1,.175-0.45,0.636,0.636,0,0,1,.45-0.17h8.75a0.635,0.635,0,0,1,.449.17,0.619,0.619,0,0,1,.176.45,0.588,0.588,0,0,1-.176.45,0.6,0.6,0,0,1-.449.18h-8.75A0.6,0.6,0,0,1,455.32,1434.15Zm0,2.5a0.588,0.588,0,0,1-.175-0.45,0.618,0.618,0,0,1,.175-0.45,0.636,0.636,0,0,1,.45-0.17h8.75a0.635,0.635,0,0,1,.449.17,0.619,0.619,0,0,1,.176.45,0.588,0.588,0,0,1-.176.45,0.6,0.6,0,0,1-.449.18h-8.75A0.6,0.6,0,0,1,455.32,1436.65Z" class="cls-1" transform="translate(-452.656 -1423.09)"/></svg>