<svg xmlns="http://www.w3.org/2000/svg" width="20" height="20" viewBox="0 0 20 20"><metadata><?xpacket begin="﻿" id="W5M0MpCehiHzreSzNTczkc9d"?><x:xmpmeta xmlns:x="adobe:ns:meta/" x:xmptk="Adobe XMP Core 5.6-c142 79.160924, 2017/07/13-01:06:39"><rdf:RDF xmlns:rdf="http://www.w3.org/1999/02/22-rdf-syntax-ns#"><rdf:Description/></rdf:RDF></x:xmpmeta><?xpacket end="w"?></metadata><defs><style>.cls-1{fill:#feb960;fill-rule:evenodd}</style></defs><path id="k" d="M847.84,1431.79l2.265-2.27,6.407,6.45,1.133,3.36-3.36-1.13Zm-2.969-2.97a1.54,1.54,0,0,1-.469-1.13,1.578,1.578,0,0,1,.469-1.14,1.625,1.625,0,0,1,2.266,0l1.64,1.68-2.226,2.23Zm16.152-5.37a1.2,1.2,0,0,1,.372.88v17.5a1.2,1.2,0,0,1-.372.88,1.228,1.228,0,0,1-.878.37h-17.5a1.228,1.228,0,0,1-.879-0.37,1.2,1.2,0,0,1-.371-0.88v-17.5a1.2,1.2,0,0,1,.371-0.88,1.189,1.189,0,0,1,.879-0.37h17.5A1.188,1.188,0,0,1,861.023,1423.45Zm-0.878.88h-17.5v17.5h17.5v-17.5Z" class="cls-1" transform="translate(-841.406 -1423.09)"/></svg>