<svg xmlns="http://www.w3.org/2000/svg" width="15" height="20" viewBox="0 0 15 20">
  <metadata><?xpacket begin="﻿" id="W5M0MpCehiHzreSzNTczkc9d"?>
<x:xmpmeta xmlns:x="adobe:ns:meta/" x:xmptk="Adobe XMP Core 5.6-c142 79.160924, 2017/07/13-01:06:39        ">
   <rdf:RDF xmlns:rdf="http://www.w3.org/1999/02/22-rdf-syntax-ns#">
      <rdf:Description rdf:about=""/>
   </rdf:RDF>
</x:xmpmeta>
                                                                                                    
                                                                                                    
                                                                                                    
                                                                                                    
                                                                                                    
                                                                                                    
                                                                                                    
                                                                                                    
                                                                                                    
                                                                                                    
                                                                                                    
                                                                                                    
                                                                                                    
                                                                                                    
                                                                                                    
                                                                                                    
                                                                                                    
                                                                                                    
                                                                                                    
                                                                                                    
                           
<?xpacket end="w"?></metadata>
<defs>
    <style>
      .cls-1 {
        fill: #feb960;
        fill-rule: evenodd;
      }
    </style>
  </defs>
  <path id="_" data-name="" class="cls-1" d="M1231.89,1425.58a2.437,2.437,0,0,1,.73-1.78,2.5,2.5,0,0,1,4.27,1.78v11.25l-2.5,6.25-2.3-5.78-0.2-.47v-10h0v-1.25Zm1.25,1.25h2.5v-1.25a1.194,1.194,0,0,0-.37-0.88,1.22,1.22,0,0,0-1.75,0,1.2,1.2,0,0,0-.38.88v1.25Zm1.88,11.29,0.27-.63v-0.08l-0.9-.43-0.89.43v0.08l0.27,0.63,0.62,1.6Zm0.62-9.14v-0.9h-2.5v8.12l1.25-.62,1.25,0.62v-7.22Zm10-.9v6.25a1.179,1.179,0,0,1,.88.37,1.194,1.194,0,0,1,.37.88v3.75a1.194,1.194,0,0,1-.37.88,1.217,1.217,0,0,1-.88.37,2.445,2.445,0,0,1-.72,1.78,2.548,2.548,0,0,1-3.55,0,2.454,2.454,0,0,1-.73-1.78v-12.5l0.51-1.29,1.17-3.01h0.04a0.789,0.789,0,0,1,.26-0.51,0.743,0.743,0,0,1,.52-0.19,0.75,0.75,0,0,1,.79.62l1.21,3.09Zm-1.25,6.25v-6.25h-2.5v12.5a1.282,1.282,0,0,0,1.25,1.25,1.217,1.217,0,0,0,.88-0.37,1.194,1.194,0,0,0,.37-0.88v-6.25Zm-1.25-9.14-0.66,1.64h1.33Z" transform="translate(-1231.91 -1423.09)"/>
</svg>
